<svg width="40" height="48" viewBox="0 0 40 48" fill="none" xmlns="http://www.w3.org/2000/svg">
<path d="M33.5079 32.3809C29.0176 30.6539 27.7221 30.1364 27.2906 30.0496C27.2038 30.0496 27.0319 30.0496 26.945 30.1364L22.8863 32.8987C22.8003 32.9856 22.7144 33.0715 22.7144 33.2443C22.7144 33.3303 22.7144 33.5031 22.8004 33.59L24.8729 35.6622L22.5416 37.9935C22.3685 38.1666 22.3685 38.4254 22.5416 38.5982L24.6134 41.2747L21.7642 46.9741C21.6782 47.1463 21.6782 47.2331 21.7642 47.406C21.851 47.4919 22.0229 47.5779 22.1098 47.5779H39.3794C39.6386 47.5779 39.8115 47.406 39.8115 47.1463C39.984 45.1602 40.5878 35.1441 33.5079 32.3809Z" fill="#DB1127"/>
<path d="M15.2881 41.1886L17.3605 38.5111C17.5333 38.3393 17.447 38.0792 17.3605 37.9073L15.029 35.576L17.1016 33.5029C17.1876 33.417 17.2742 33.2441 17.1876 33.1582C17.1876 33.0714 17.1016 32.8986 17.0152 32.8126L12.9567 30.0494C12.8703 29.9629 12.6978 29.9629 12.6113 29.9629C12.266 30.0494 10.971 30.5677 6.39434 32.2947C-0.686218 35.144 -0.0821382 45.1601 0.0908803 47.1462C0.0908803 47.4058 0.263678 47.5778 0.522381 47.5778H17.7922C17.965 47.5778 18.051 47.4918 18.1376 47.4059C18.224 47.3191 18.224 47.1463 18.1376 46.9739L15.2881 41.1886Z" fill="#DB1127"/>
<path d="M22.8861 41.1015L20.5554 38.1662L22.8002 35.9205C22.8861 35.8345 22.8861 35.7486 22.8861 35.5757C22.8861 35.4026 22.8002 35.3167 22.8002 35.2297L20.296 32.726C20.1237 32.5532 19.8643 32.5532 19.6919 32.726L17.1874 35.2297C17.015 35.4025 17.015 35.6617 17.1874 35.8344L19.4326 38.0789L17.1015 41.0154C17.0151 41.1013 17.0151 41.2742 17.0151 41.447L19.6056 47.1459C19.692 47.3187 19.8644 47.4055 20.0374 47.4055C20.2097 47.4055 20.3826 47.3187 20.4691 47.1459L23.059 41.447C23.059 41.4472 23.059 41.2744 22.8861 41.1015Z" fill="#DB1127"/>
<path d="M28.9307 15.4563C26.6857 14.2475 23.3182 13.557 19.951 13.557C16.5834 13.557 13.2158 14.2475 10.9709 15.4563C10.8842 15.5428 10.7979 15.6291 10.7979 15.7155C10.7979 15.8017 10.7979 15.9744 10.8843 16.0608C12.7843 18.9968 17.8787 19.0831 18.9145 19.0831H21.1592C22.1955 19.0831 27.2905 18.9101 29.1904 16.0608C29.2763 15.9745 29.2763 15.8017 29.2763 15.7155C29.1035 15.6291 29.0175 15.4563 28.9307 15.4563Z" fill="#DB1127"/>
<path d="M19.9508 28.754C25.7361 28.6681 30.3984 24.005 30.3984 18.2199C30.3984 18.0471 30.3984 17.7882 30.3984 17.5289C30.3984 17.3563 30.3125 17.1836 30.1396 17.1836C29.9669 17.0969 29.794 17.1836 29.7081 17.27C27.2034 19.7739 22.6272 20.0332 21.2458 20.0332H18.9143C17.533 20.0332 12.9563 19.8604 10.4522 17.27C10.3658 17.1836 10.1934 17.097 10.0207 17.1836C9.84769 17.27 9.76179 17.3563 9.76179 17.5289C9.76179 17.7881 9.76179 17.9604 9.76179 18.2199C9.50242 24.005 14.1653 28.668 19.9508 28.754Z" fill="#DB1127"/>
<path d="M8.72471 11.9161C8.89751 12.0025 9.06986 12.0889 9.24288 12.0025C10.7969 11.139 15.6325 9.67144 19.8634 9.67144C24.1803 9.67144 29.0166 11.1391 30.5709 12.0025C30.6568 12.0025 30.7436 12.0889 30.7436 12.0889C30.8296 12.0889 30.9164 12.0889 31.0024 12.0025C32.0388 11.0526 32.8153 10.3621 33.075 10.103C33.2474 9.93025 33.2474 9.67133 33.161 9.49853C33.075 9.41196 32.9882 9.32551 32.9022 9.15315C32.4706 8.72143 31.8658 8.03024 31.6071 6.90798L31.434 6.30324C31.2612 4.74926 31.1752 4.14474 29.621 3.97217H29.1895C27.5484 3.79937 24.9579 3.54044 22.8854 1.72699C21.1582 0.173018 20.4682 0 19.95 0C19.4316 0 18.7411 0.173018 17.0142 1.72699C14.9418 3.54044 12.3515 3.79937 10.7105 3.97217H10.2787C8.72471 4.14474 8.55169 4.74926 8.29299 6.21734L8.11997 6.82164C7.86115 7.94433 7.25642 8.54863 6.82469 9.06681C6.73868 9.15315 6.65234 9.32551 6.56588 9.41196C6.39308 9.58498 6.47943 9.84368 6.65234 10.0167C6.99771 10.2754 7.68825 10.9666 8.72471 11.9161Z" fill="#DB1127"/>
<path d="M29.9665 14.4205C30.0533 14.3341 30.1392 14.2477 30.2252 14.0749L30.398 13.2113C30.398 13.0387 30.3121 12.7796 30.1392 12.7796C28.9301 12.2619 24.6126 10.7072 20.0368 10.7072C15.3739 10.7072 11.1425 12.2619 9.93362 12.7796C9.76126 12.8659 9.6748 13.0387 9.6748 13.2113L9.84716 14.0749C9.84716 14.2477 9.93351 14.334 10.1065 14.4205C10.1929 14.4205 10.1929 14.5066 10.2788 14.5066C10.3652 14.5066 10.4516 14.5066 10.4516 14.4205C12.9557 13.2114 16.3233 12.5207 20.1229 12.5207C23.8357 12.5207 27.2896 13.2114 29.7933 14.4205C29.7078 14.4205 29.8806 14.4205 29.9665 14.4205Z" fill="#DB1127"/>
</svg>
