<svg width="48" height="48" viewBox="0 0 48 48" fill="none" xmlns="http://www.w3.org/2000/svg">
<g clip-path="url(#clip0)">
<path d="M32.1434 24.7715L30.0006 22.6286L26.0576 26.5715L36.8577 37.3716L40.8006 33.4287L37.8006 30.4287L35.7436 32.3999C35.4004 32.7431 34.8864 32.7431 34.5432 32.3999L30.2575 28.1142C29.9148 27.7715 29.9148 27.2571 30.2575 26.9143L32.1434 24.7715Z" fill="#DB1127"/>
<path d="M38.5714 38.0571L37.4573 39.1716L36.8571 39.7714V41.1429C36.8571 41.6572 36.5144 42 36 42H18.8571C18.3428 42 18 41.6572 18 41.1429V34.2857C18 33.7714 18.3428 33.4286 18.8571 33.4286H25.3715L21.6855 29.743C21.3428 29.3998 21.3428 28.8859 21.6855 28.5427L29.3998 20.8284C29.743 20.4856 30.257 20.4856 30.6002 20.8284L33.3428 23.5714L37.7143 18.9429V18.8571C37.7143 17.743 37.9713 16.7143 38.5714 15.7713V7.71429H31.7143C31.1999 7.71429 30.8571 7.37151 30.8571 6.85714V0H6V2.05706C10.6285 0.857143 15.4286 2.9142 17.6572 7.11412C17.743 6.94294 17.9142 6.85714 18 6.77135C17.9142 5.48563 18.8571 4.37151 20.1429 4.28572H20.5714C21.4286 3.34277 22.8859 3.1716 23.8284 4.02874C23.9142 4.02874 24 4.11412 24.0858 4.28572C25.3715 4.19992 26.4856 5.14286 26.5714 6.42857V6.85714C27.5144 7.71429 27.6855 9.1716 26.8284 10.1141C26.743 10.1999 26.6572 10.2857 26.5714 10.3715C26.6572 11.6572 25.7143 12.7713 24.4286 12.8571C24.257 12.8571 24.1716 12.8571 24 12.8571C23.1429 13.8001 21.6855 13.9713 20.743 13.1141C20.6572 13.0287 20.5714 12.9429 20.4856 12.8571C19.8859 12.9429 19.2857 12.6855 18.8571 12.3428C18.8571 13.3715 18.6002 14.3998 18.257 15.4286H19.7143V17.1429H17.4856C16.8859 18.0858 16.1999 18.9429 15.3428 19.7143H27.4286V21.4286H12.6855C10.5427 22.3715 8.22866 22.5427 6 21.9429V44.5714H38.5714V38.0571ZM21.4286 17.1429V15.4286H28.2857V17.1429H21.4286ZM14.5714 23.1429H23.1429V24.8571H14.5714V23.1429ZM9.42857 23.1429H12.8571V24.8571H9.42857V23.1429ZM9.42857 26.5714H19.7143V28.2857H9.42857V26.5714ZM9.42857 30H14.5714V31.7143H9.42857V30ZM16.2857 42H9.42857V40.2857H16.2857V42ZM16.2857 38.5714H9.42857V36.8571H16.2857V38.5714ZM16.2857 35.1429H9.42857V33.4286H16.2857V35.1429ZM16.2857 30H19.7143V31.7143H16.2857V30Z" fill="#DB1127"/>
<path d="M19.2851 7.97158C18.9423 8.05738 18.7707 8.40016 18.9423 8.74335C19.0281 8.91452 19.1135 9.08612 19.2851 9.08612C19.7137 9.2573 19.9706 9.77167 19.7995 10.2002V10.286C19.7137 10.543 19.7137 10.8004 19.8853 10.9716C20.0564 11.1432 20.3138 11.229 20.5708 11.0574C20.6566 10.9716 20.8278 10.9716 20.9136 10.9716C20.9994 10.9716 21.171 10.9716 21.2564 11.0574C21.5138 11.1432 21.6849 11.3148 21.7707 11.5718C21.8565 11.9145 22.1993 12.0861 22.5421 11.9145C22.7137 11.8287 22.8853 11.7433 22.8853 11.5718C23.0564 11.1432 23.5708 10.8862 23.9994 11.0574H24.0852C24.3422 11.1432 24.5996 11.1432 24.7707 10.9716C24.9423 10.8004 25.0281 10.543 24.8565 10.286C24.6849 9.85747 24.8565 9.3431 25.2851 9.17192H25.3709C25.7137 9.08612 25.8853 8.74335 25.7137 8.40016C25.6279 8.22898 25.5421 8.05738 25.3709 8.05738C24.9423 7.8862 24.6849 7.37183 24.8565 6.94326V6.85747C25.0281 6.60049 24.8565 6.17192 24.5996 6.08612C24.428 6.00032 24.2564 6.00032 24.0852 6.08612C23.6566 6.2573 23.1422 6.08612 22.9706 5.65755V5.57175C22.8853 5.22898 22.5421 5.05738 22.1993 5.22898C22.0281 5.31478 21.8565 5.40016 21.8565 5.57175C21.6849 6.00032 21.171 6.2573 20.7424 6.08612H20.6566C20.3992 5.91452 19.9706 6.08612 19.8853 6.3431C19.7995 6.51469 19.7995 6.68587 19.8853 6.85747C20.0564 7.28604 19.8853 7.80041 19.4567 7.97158C19.2851 7.97158 19.2851 7.97158 19.2851 7.97158Z" fill="#DB1127"/>
<path d="M40.1997 6.5143C40.1997 6.5143 40.2855 6.77127 40.2855 6.85707V13.9712C40.7999 13.6284 41.3996 13.2856 41.9998 13.114V3.4285H37.1997L40.0285 6.2569C40.1139 6.3427 40.1997 6.4285 40.1997 6.5143Z" fill="#DB1127"/>
<path d="M32.5723 1.20013V6.00022H37.3723L32.5723 1.20013Z" fill="#DB1127"/>
<path d="M17.1429 11.9999C17.1429 7.28564 13.2857 3.4285 8.57143 3.4285C3.85714 3.4285 0 7.28564 0 11.9999C0 16.7142 3.85714 20.5714 8.57143 20.5714C13.2857 20.5714 17.1429 16.7142 17.1429 11.9999ZM5.14286 17.1428C4.88588 17.1428 4.71429 17.057 4.54269 16.8858L1.97126 14.3144L3.1716 13.114L5.14286 15.0857L13.1141 7.11404L14.3145 8.31438L5.74302 16.8858C5.57143 17.057 5.39983 17.1428 5.14286 17.1428Z" fill="#DB1127"/>
<path d="M23.5098 29.1291L24.8432 27.7957L35.6316 38.584L34.2981 39.9175L23.5098 29.1291Z" fill="#DB1127"/>
<path d="M40.2849 45.4287C40.2849 45.9431 39.9421 46.2858 39.4277 46.2858H9.42773V48.0001H41.9992V34.6286L40.2849 36.3429V45.4287Z" fill="#DB1127"/>
<path d="M40.2861 30.5142L42.0004 32.2285V26.3996L40.2861 28.0285V30.5142Z" fill="#DB1127"/>
<path d="M43.7148 14.5715C41.315 14.5715 39.4291 16.4574 39.4291 18.8572V19.2858C39.4291 19.5428 39.3433 19.7144 39.1722 19.886L32.0576 27.4286L35.1434 30.5144L42.6861 23.3999C42.8577 23.2287 43.0293 23.1429 43.2863 23.1429H43.7148C46.1147 23.1429 48.0006 21.2571 48.0006 18.8572C48.0006 16.4574 46.1147 14.5715 43.7148 14.5715Z" fill="#DB1127"/>
<path d="M28.7997 36.8573L27.0854 35.143H19.7139V40.2859H32.2282L30.514 38.5716H26.571V36.8573H28.7997ZM24.8567 38.5716H21.4282V36.8573H24.8567V38.5716Z" fill="#DB1127"/>
</g>
<defs>
<clipPath id="clip0">
<rect width="48" height="48" fill="white"/>
</clipPath>
</defs>
</svg>
