<svg width="175" height="63" viewBox="0 0 175 63" fill="none" xmlns="http://www.w3.org/2000/svg">
<rect x="6.53662" y="4.3584" width="50.1151" height="54.473" fill="#DB1127"/>
<path d="M83.3931 32.4301H76.3843V29.6139H83.4478C82.9003 26.6287 80.6553 25.1079 77.9722 25.1079C76.4391 25.1079 75.0154 25.7275 74.0298 26.7976L72.0586 24.77C73.5918 23.1929 75.6177 22.2354 77.9722 22.2354C82.5717 22.2354 86.3499 25.7275 86.3499 31.0783C86.3499 36.1475 82.5717 39.9212 77.9722 39.9212C75.6725 39.9212 73.5918 38.9637 72.0586 37.3866L74.0298 35.359C75.0154 36.3728 76.4391 37.0487 77.9722 37.0487C80.6553 37.0487 82.8455 35.021 83.3931 32.4301Z" fill="white"/>
<path d="M101.956 22.46V39.6952H99.1084V32.4857H92.1544V39.6952H89.3618V22.46H92.1544V29.6132H99.1084V22.46H101.956Z" fill="white"/>
<path d="M108.526 25.3325V29.6132H115.48V32.4857H108.526V36.7664H116.904V39.6952H105.734V22.46H116.904V25.3325H108.526Z" fill="white"/>
<path d="M130.976 27.5292C130.976 32.5984 125.391 32.5984 125.391 32.5984H122.598V39.7516H119.806V22.46H125.391C125.391 22.46 130.976 22.46 130.976 27.5292ZM128.183 27.5292C128.183 25.3888 125.391 25.3888 125.391 25.3888H122.598V29.7258H125.391C125.391 29.6695 128.183 29.6695 128.183 27.5292Z" fill="white"/>
<path d="M136.452 39.6952H133.659V22.46H144.063V25.2199H136.452V39.6952Z" fill="white"/>
<path d="M146.855 22.46H149.648V34.964L157.971 22.46H160.818V39.6952H157.971V26.9659L149.703 39.6952H146.855V22.46Z" fill="white"/>
<path d="M166.732 39.6956H163.666L167.06 32.0918C165.527 31.5285 163.83 30.2894 163.83 27.5295C163.83 22.5166 169.415 22.5166 169.415 22.5166H175V39.6956H172.207V32.486H169.962L166.732 39.6956ZM172.207 25.2765H169.415C169.415 25.2765 166.622 25.3328 166.622 27.4732C166.622 29.6135 169.415 29.7261 169.415 29.7261H172.207V25.2765Z" fill="white"/>
<path d="M50.4849 0H10.7322C4.81852 0 0 4.95655 0 11.0396V51.9311C0 58.0142 4.81852 62.9707 10.7322 62.9707H50.4849C56.3986 62.9707 61.2171 58.0142 61.2171 51.9311V11.0396C61.2171 4.95655 56.3986 0 50.4849 0ZM38.6029 11.3212L41.0122 17.8549C40.9026 17.9675 40.7931 18.0238 40.7384 18.1365L29.0754 14.2501C29.0754 13.9121 28.9659 13.5742 28.8016 13.3489L32.963 7.94175L38.6029 11.3212ZM40.5194 19.8825L28.7468 29.6267C28.4731 29.4014 28.1993 29.2887 27.8707 29.1761V16.0525C28.1993 15.9398 28.4731 15.7145 28.6921 15.4329L40.3551 19.3193C40.4098 19.4883 40.4646 19.6572 40.5194 19.8825ZM30.6085 6.58996L31.9774 7.43483L27.9255 12.673C27.7612 12.6167 27.5422 12.5604 27.3232 12.5604C26.7756 12.5604 26.2828 12.842 26.009 13.2362L22.0666 11.7155L30.6085 6.58996ZM20.8072 12.3914L25.6258 14.2501V14.3064C25.6258 15.095 26.1186 15.7708 26.7756 15.9961V29.1761C26.6661 29.2324 26.5018 29.2324 26.3923 29.2887L16.0435 15.2076L20.8072 12.3914ZM9.63704 19.0377L15.0579 15.8272L25.5162 30.0773C25.1877 30.4715 24.9687 31.0348 24.9687 31.598C24.9687 31.7107 24.9687 31.8233 25.0234 31.936L9.69179 38.2443V19.0377H9.63704ZM9.63704 43.9331V39.4271L25.4067 32.9498C25.8448 33.5694 26.5566 33.9636 27.3232 33.9636C27.3779 33.9636 27.3779 33.9636 27.4327 33.9636L31.2656 46.9746C30.9371 47.2562 30.7181 47.7068 30.7181 48.1574C30.7181 48.3264 30.7728 48.4954 30.7728 48.608L25.4067 53.2266L9.63704 43.9331ZM30.6085 56.3808L26.5018 53.9588L31.5394 49.6218C31.7037 49.7345 31.8679 49.7908 32.0869 49.7908L33.5106 54.691L30.6085 56.3808ZM40.4646 50.523L34.551 54.0715L33.1821 49.3965C33.5106 49.1149 33.7296 48.7206 33.7296 48.2137C33.7296 47.4252 33.1273 46.7493 32.3607 46.693L28.5278 33.682C28.5826 33.6257 28.6373 33.6257 28.7468 33.5694L40.7384 43.8768C40.6836 44.0457 40.6289 44.2147 40.6289 44.44C40.6289 44.9469 40.9026 45.4538 41.2859 45.7355L40.4646 50.523ZM41.724 49.7345L42.4358 45.8481C42.6001 45.7918 42.7643 45.7355 42.9286 45.6791L45.2284 47.6505L41.724 49.7345ZM51.58 43.9331L46.3235 47.0872L43.6404 44.7779C43.6952 44.6653 43.6952 44.5526 43.6952 44.3837C43.6952 43.5388 43.0381 42.8629 42.2168 42.8629C41.9978 42.8629 41.7787 42.9192 41.6145 42.9756L29.5682 32.6119C29.7324 32.2739 29.7872 31.936 29.7872 31.5417C29.7872 31.1474 29.6777 30.8095 29.5682 30.5279L41.3407 20.7274C41.6145 20.8964 41.943 21.009 42.2715 21.009C42.7096 21.009 43.0929 20.84 43.4214 20.5584L51.58 25.346V43.9331ZM51.58 23.9942L43.8595 19.5446C43.8595 19.4319 43.9142 19.3193 43.9142 19.2066C43.9142 18.1928 43.1476 17.4043 42.162 17.4043H42.1073L40.1908 12.2224L51.58 18.9813V23.9942Z" fill="white"/>
</svg>
