<svg width="65" height="64" viewBox="0 0 65 64" fill="none" xmlns="http://www.w3.org/2000/svg">
<path d="M39.8527 32.1762C40.1513 32.1762 40.4376 32.0576 40.6488 31.8465C40.8599 31.6353 40.9786 31.3489 40.9786 31.0503V26.5468C40.9786 26.2482 40.8599 25.9618 40.6488 25.7507C40.4376 25.5395 40.1513 25.4209 39.8527 25.4209H24.0902C23.7916 25.4209 23.5053 25.5395 23.2941 25.7507C23.083 25.9618 22.9644 26.2482 22.9644 26.5468V31.0503C22.9644 31.3489 23.083 31.6353 23.2941 31.8465C23.5053 32.0576 23.7916 32.1762 24.0902 32.1762H39.8527ZM30.8456 27.6727H33.0973V29.9244H30.8456V27.6727Z" fill="#DB1127"/>
<path d="M43.2304 31.0507C43.2277 31.9457 42.871 32.8033 42.2381 33.4361C41.6053 34.069 40.7477 34.4257 39.8527 34.4284H24.0903C23.1953 34.4257 22.3377 34.069 21.7049 33.4361C21.072 32.8033 20.7153 31.9457 20.7126 31.0507V29.9248H4.9502V62.5755C4.9502 62.8741 5.06882 63.1605 5.27996 63.3717C5.49111 63.5828 5.77748 63.7014 6.07608 63.7014H57.8669C58.1655 63.7014 58.4519 63.5828 58.663 63.3717C58.8742 63.1605 58.9928 62.8741 58.9928 62.5755V29.9248H43.2304V31.0507ZM27.4679 51.3167C27.4677 51.5681 27.3834 51.8123 27.2283 52.0102C27.0732 52.2081 26.8564 52.3484 26.6123 52.4088L25.8579 52.6002L26.2632 53.2645C26.3898 53.4802 26.4418 53.7316 26.4112 53.9798C26.3807 54.2281 26.2694 54.4594 26.0944 54.638L22.9081 57.8243C22.7306 58.0013 22.4991 58.1141 22.2503 58.1447C22.0015 58.1753 21.7496 58.122 21.5345 57.9932L20.8702 57.5879L20.6788 58.3422C20.6185 58.5863 20.4782 58.8032 20.2802 58.9582C20.0823 59.1133 19.8382 59.1977 19.5867 59.1979H15.0832C14.8317 59.1977 14.5876 59.1133 14.3897 58.9582C14.1917 58.8032 14.0514 58.5863 13.9911 58.3422L13.7997 57.5879L13.1354 57.9932C12.9203 58.122 12.6684 58.1753 12.4196 58.1447C12.1708 58.1141 11.9393 58.0013 11.7618 57.8243L8.57555 54.638C8.3985 54.4606 8.28574 54.2291 8.25515 53.9803C8.22456 53.7314 8.27788 53.4795 8.40667 53.2645L8.81199 52.6002L8.05764 52.4088C7.81355 52.3484 7.59668 52.2081 7.4416 52.0102C7.28652 51.8123 7.20216 51.5681 7.20197 51.3167V46.8131C7.20216 46.5617 7.28652 46.3175 7.4416 46.1196C7.59668 45.9217 7.81355 45.7814 8.05764 45.721L8.81199 45.5296L8.40667 44.8653C8.28016 44.6496 8.22816 44.3982 8.25868 44.15C8.2892 43.9017 8.40055 43.6704 8.57555 43.4917L11.7618 40.3055C11.9407 40.1308 12.172 40.0197 12.4201 39.9892C12.6682 39.9587 12.9195 40.0105 13.1354 40.1366L13.7997 40.5419L13.9911 39.7876C14.0514 39.5435 14.1917 39.3266 14.3897 39.1715C14.5876 39.0165 14.8317 38.9321 15.0832 38.9319H19.5867C19.8382 38.9321 20.0823 39.0165 20.2802 39.1715C20.4782 39.3266 20.6185 39.5435 20.6788 39.7876L20.8702 40.5419L21.5345 40.1366C21.7503 40.0101 22.0016 39.9581 22.2499 39.9886C22.4981 40.0191 22.7294 40.1305 22.9081 40.3055L26.0944 43.4917C26.2714 43.6692 26.3842 43.9007 26.4148 44.1495C26.4454 44.3983 26.392 44.6503 26.2632 44.8653L25.8579 45.5296L26.6123 45.721C26.8564 45.7814 27.0732 45.9217 27.2283 46.1196C27.3834 46.3175 27.4677 46.5617 27.4679 46.8131V51.3167ZM44.3563 38.9319H48.8598C49.1112 38.9321 49.3554 39.0165 49.5533 39.1715C49.7513 39.3266 49.8916 39.5435 49.9519 39.7876L50.1433 40.5419L50.8076 40.1366C51.0233 40.0101 51.2747 39.9581 51.523 39.9886C51.7712 40.0191 52.0025 40.1305 52.1812 40.3055L55.3674 43.4917C55.5445 43.6692 55.6572 43.9007 55.6878 44.1495C55.7184 44.3983 55.6651 44.6503 55.5363 44.8653L55.131 45.5296L55.8853 45.721C56.1294 45.7814 56.3463 45.9217 56.5014 46.1196C56.6565 46.3175 56.7408 46.5617 56.741 46.8131V51.3167C56.7408 51.5681 56.6565 51.8123 56.5014 52.0102C56.3463 52.2081 56.1294 52.3484 55.8853 52.4088L55.131 52.6002L55.5363 53.2645C55.6651 53.4795 55.7184 53.7314 55.6878 53.9803C55.6572 54.2291 55.5445 54.4606 55.3674 54.638L52.1812 57.8243C52.0023 57.999 51.771 58.1101 51.5229 58.1406C51.2747 58.1711 51.0234 58.1193 50.8076 57.9932L50.1433 57.5879L49.9519 58.3422C49.8916 58.5863 49.7513 58.8032 49.5533 58.9582C49.3554 59.1133 49.1112 59.1977 48.8598 59.1979H44.3563C44.1048 59.1977 43.8607 59.1133 43.6627 58.9582C43.4648 58.8032 43.3245 58.5863 43.2641 58.3422L43.0727 57.5879L42.4085 57.9932C42.1927 58.1197 41.9413 58.1717 41.6931 58.1412C41.4449 58.1106 41.2136 57.9993 41.0349 57.8243L37.8486 54.638C37.6716 54.4606 37.5588 54.2291 37.5282 53.9803C37.4976 53.7314 37.551 53.4795 37.6797 53.2645L38.0851 52.6002L37.3307 52.4088C37.0866 52.3484 36.8698 52.2081 36.7147 52.0102C36.5596 51.8123 36.4752 51.5681 36.475 51.3167V46.8131C36.4752 46.5617 36.5596 46.3175 36.7147 46.1196C36.8698 45.9217 37.0866 45.7814 37.3307 45.721L38.0851 45.5296L37.6797 44.8653C37.551 44.6503 37.4976 44.3983 37.5282 44.1495C37.5588 43.9007 37.6716 43.6692 37.8486 43.4917L41.0349 40.3055C41.2138 40.1308 41.445 40.0197 41.6932 39.9892C41.9413 39.9587 42.1926 40.0105 42.4085 40.1366L43.0727 40.5419L43.2641 39.7876C43.3245 39.5435 43.4648 39.3266 43.6627 39.1715C43.8607 39.0165 44.1048 38.9321 44.3563 38.9319Z" fill="#DB1127"/>
<path d="M62.3706 14.1621H1.57266C1.27406 14.1621 0.987687 14.2807 0.776542 14.4919C0.565398 14.703 0.446777 14.9894 0.446777 15.288V26.5469C0.446777 26.8455 0.565398 27.1318 0.776542 27.343C0.987687 27.5541 1.27406 27.6728 1.57266 27.6728H20.7127V26.5469C20.7154 25.6519 21.0721 24.7943 21.705 24.1615C22.3379 23.5286 23.1954 23.1719 24.0904 23.1692H39.8528C40.7478 23.1719 41.6054 23.5286 42.2383 24.1615C42.8711 24.7943 43.2278 25.6519 43.2305 26.5469V27.6728H62.3706C62.6692 27.6728 62.9556 27.5541 63.1667 27.343C63.3779 27.1318 63.4965 26.8455 63.4965 26.5469V15.288C63.4965 14.9894 63.3779 14.703 63.1667 14.4919C62.9556 14.2807 62.6692 14.1621 62.3706 14.1621ZM4.95033 25.421H2.69855V23.1692H4.95033V25.421ZM4.95033 17.5398H2.69855V15.288H4.95033V17.5398ZM61.2447 25.421H58.9929V23.1692H61.2447V25.421ZM61.2447 17.5398H58.9929V15.288H61.2447V17.5398Z" fill="#DB1127"/>
<path d="M59.8486 11.9105H62.3706C62.76 11.9074 63.1462 11.9801 63.5078 12.1244C63.9878 11.0374 64.2149 9.85554 64.172 8.66797L59.8486 11.9105Z" fill="#DB1127"/>
<path d="M8.06876 11.6623L11.4577 8.27335L7.44952 2.91412L2.8559 0.955078L0.750488 3.06049L2.70953 7.65411L8.06876 11.6623Z" fill="#DB1127"/>
<path d="M14.6895 11.9111L12.9106 9.99707L10.9966 11.9111H14.6895Z" fill="#DB1127"/>
<path d="M19.5867 5.15492C19.5885 4.55826 19.8263 3.98654 20.2482 3.56464C20.6701 3.14274 21.2419 2.90492 21.8385 2.90314H42.1045C42.7011 2.90492 43.2729 3.14274 43.6948 3.56464C44.1167 3.98654 44.3545 4.55826 44.3563 5.15492V11.9102H46.608V4.02903C46.6054 3.13404 46.2486 2.27647 45.6158 1.64361C44.9829 1.01076 44.1254 0.65404 43.2304 0.651367H20.7126C19.8176 0.65404 18.9601 1.01076 18.3272 1.64361C17.6944 2.27647 17.3376 3.13404 17.335 4.02903V11.9102H19.5867V5.15492Z" fill="#DB1127"/>
<path d="M53.0594 7.44071C52.8674 7.24847 52.7514 6.99328 52.7328 6.72222C52.7141 6.45115 52.7942 6.18249 52.9581 5.9658L56.606 1.10197C55.5069 1.06176 54.4116 1.25127 53.3899 1.65838C52.3682 2.0655 51.4427 2.68126 50.6725 3.46633C49.9254 4.21155 49.3122 5.07992 48.8599 6.03335V11.9105H57.5405L53.0594 7.44071Z" fill="#DB1127"/>
<path d="M40.0669 44.4599L40.7987 45.6759C40.887 45.8283 40.939 45.9989 40.9507 46.1747C40.9624 46.3504 40.9335 46.5264 40.8662 46.6892C40.7989 46.8517 40.6947 46.9963 40.5618 47.1116C40.4289 47.2269 40.271 47.3097 40.1006 47.3535L38.7271 47.6912V50.4384L40.1006 50.7762C40.271 50.8199 40.4289 50.9027 40.5618 51.018C40.6947 51.1333 40.7989 51.2779 40.8662 51.4404C40.9335 51.6032 40.9624 51.7792 40.9507 51.955C40.939 52.1307 40.887 52.3013 40.7987 52.4537L40.0669 53.6697L42.0034 55.6062L43.2193 54.8744C43.3717 54.7861 43.5424 54.7341 43.7181 54.7224C43.8938 54.7107 44.0699 54.7396 44.2326 54.8068C44.3952 54.8742 44.5398 54.9784 44.6551 55.1113C44.7704 55.2441 44.8532 55.402 44.8969 55.5724L45.2347 56.946H47.9818L48.3196 55.5724C48.3633 55.402 48.4461 55.2441 48.5614 55.1113C48.6767 54.9784 48.8214 54.8742 48.9839 54.8068C49.1466 54.7396 49.3227 54.7107 49.4984 54.7224C49.6741 54.7341 49.8448 54.7861 49.9972 54.8744L51.2131 55.6062L53.1497 53.6697L52.4178 52.4537C52.3296 52.3013 52.2776 52.1307 52.2658 51.955C52.2541 51.7792 52.283 51.6032 52.3503 51.4404C52.4176 51.2779 52.5218 51.1333 52.6547 51.018C52.7876 50.9027 52.9455 50.8199 53.1159 50.7762L54.4895 50.4384V47.6912L53.1159 47.3535C52.9455 47.3097 52.7876 47.2269 52.6547 47.1116C52.5218 46.9963 52.4176 46.8517 52.3503 46.6892C52.283 46.5264 52.2541 46.3504 52.2658 46.1747C52.2776 45.9989 52.3296 45.8283 52.4178 45.6759L53.1497 44.4599L51.2131 42.5234L49.9972 43.244C49.8467 43.3366 49.6762 43.392 49.5 43.4057C49.3238 43.4194 49.1469 43.391 48.9839 43.3228C48.8214 43.2555 48.6767 43.1512 48.5614 43.0183C48.4461 42.8855 48.3633 42.7276 48.3196 42.5572L47.9818 41.1836H45.2347L44.8969 42.5572C44.8532 42.7276 44.7704 42.8855 44.6551 43.0183C44.5398 43.1512 44.3952 43.2555 44.2326 43.3228C44.0696 43.391 43.8927 43.4194 43.7165 43.4057C43.5403 43.392 43.3699 43.3366 43.2193 43.244L42.0034 42.5234L40.0669 44.4599ZM46.6083 44.5613C47.499 44.5613 48.3697 44.8254 49.1103 45.3202C49.8509 45.8151 50.4281 46.5185 50.769 47.3414C51.1099 48.1643 51.199 49.0698 51.0253 49.9434C50.8515 50.817 50.4226 51.6195 49.7928 52.2493C49.1629 52.8791 48.3605 53.3081 47.4869 53.4818C46.6133 53.6556 45.7077 53.5664 44.8848 53.2255C44.0619 52.8847 43.3586 52.3075 42.8637 51.5668C42.3688 50.8262 42.1047 49.9555 42.1047 49.0648C42.1047 47.8704 42.5792 46.7249 43.4238 45.8803C44.2684 45.0357 45.4138 44.5613 46.6083 44.5613Z" fill="#DB1127"/>
<path d="M46.6082 51.316C47.8518 51.316 48.86 50.3079 48.86 49.0643C48.86 47.8207 47.8518 46.8125 46.6082 46.8125C45.3646 46.8125 44.3564 47.8207 44.3564 49.0643C44.3564 50.3079 45.3646 51.316 46.6082 51.316Z" fill="#DB1127"/>
<path d="M23.0773 46.6892C23.0101 46.5264 22.9812 46.3504 22.9929 46.1747C23.0046 45.9989 23.0566 45.8283 23.1449 45.6759L23.8767 44.4599L21.9402 42.5234L20.7242 43.244C20.5737 43.3366 20.4033 43.392 20.2271 43.4057C20.0509 43.4194 19.874 43.391 19.7109 43.3228C19.5484 43.2555 19.4038 43.1512 19.2885 43.0183C19.1732 42.8855 19.0904 42.7276 19.0467 42.5572L18.7089 41.1836H15.9617L15.624 42.5572C15.5802 42.7276 15.4974 42.8855 15.3821 43.0183C15.2669 43.1512 15.1222 43.2555 14.9597 43.3228C14.7967 43.3912 14.6197 43.4197 14.4435 43.406C14.2673 43.3923 14.0968 43.3368 13.9464 43.244L12.7304 42.5234L10.7939 44.4599L11.5257 45.6759C11.614 45.8283 11.666 45.9989 11.6777 46.1747C11.6894 46.3504 11.6606 46.5264 11.5933 46.6892C11.526 46.8517 11.4217 46.9963 11.2889 47.1116C11.156 47.2269 10.9981 47.3097 10.8277 47.3535L9.4541 47.6912V50.4384L10.8277 50.7762C10.9981 50.8199 11.156 50.9027 11.2889 51.018C11.4217 51.1333 11.526 51.2779 11.5933 51.4404C11.6606 51.6032 11.6894 51.7792 11.6777 51.955C11.666 52.1307 11.614 52.3013 11.5257 52.4537L10.7939 53.6697L12.7304 55.6062L13.9464 54.8744C14.0988 54.7861 14.2694 54.7341 14.4452 54.7224C14.6209 54.7107 14.7969 54.7396 14.9597 54.8068C15.1222 54.8742 15.2669 54.9784 15.3821 55.1113C15.4974 55.2441 15.5802 55.402 15.624 55.5724L15.9617 56.946H18.7089L19.0467 55.5724C19.0904 55.402 19.1732 55.2441 19.2885 55.1113C19.4038 54.9784 19.5484 54.8742 19.7109 54.8068C19.8737 54.7396 20.0497 54.7107 20.2255 54.7224C20.4012 54.7341 20.5718 54.7861 20.7242 54.8744L21.9402 55.6062L23.8767 53.6697L23.1449 52.4537C23.0566 52.3013 23.0046 52.1307 22.9929 51.955C22.9812 51.7792 23.0101 51.6032 23.0773 51.4404C23.1447 51.2779 23.2489 51.1333 23.3818 51.018C23.5147 50.9027 23.6725 50.8199 23.8429 50.7762L25.2165 50.4384V47.6912L23.8429 47.3535C23.6725 47.3097 23.5147 47.2269 23.3818 47.1116C23.2489 46.9963 23.1447 46.8517 23.0773 46.6892ZM17.3353 53.5684C16.4446 53.5684 15.5739 53.3042 14.8333 52.8094C14.0927 52.3145 13.5154 51.6112 13.1746 50.7882C12.8337 49.9653 12.7445 49.0598 12.9183 48.1862C13.0921 47.3126 13.521 46.5101 14.1508 45.8803C14.7807 45.2505 15.5831 44.8216 16.4567 44.6478C17.3303 44.474 18.2358 44.5632 19.0587 44.9041C19.8817 45.2449 20.585 45.8222 21.0799 46.5628C21.5747 47.3034 21.8389 48.1741 21.8389 49.0648C21.8389 50.2592 21.3644 51.4047 20.5198 52.2493C19.6752 53.0939 18.5297 53.5684 17.3353 53.5684Z" fill="#DB1127"/>
<path d="M17.3353 51.316C18.5789 51.316 19.587 50.3079 19.587 49.0643C19.587 47.8207 18.5789 46.8125 17.3353 46.8125C16.0916 46.8125 15.0835 47.8207 15.0835 49.0643C15.0835 50.3079 16.0916 51.316 17.3353 51.316Z" fill="#DB1127"/>
</svg>
