<svg width="62" height="62" viewBox="0 0 62 62" fill="none" xmlns="http://www.w3.org/2000/svg">
<path d="M58.7958 51.5167C52.6329 48.2735 47.9185 46.4725 43.7313 45.7617L44.1874 45.135C44.3661 44.8885 44.4268 44.5771 44.3539 44.2823L43.3995 40.4678C45.9554 36.864 47.4655 32.3624 47.4655 28.0938V23.9845H48.4928H50.5475C51.1156 23.9845 51.5747 23.5243 51.5747 22.9573C51.5747 22.3891 51.1155 21.93 50.5475 21.93H49.5202V20.9028C49.5202 18.0407 48.8463 15.3449 47.6381 12.9472L38.4138 14.7203C38.3491 14.7327 38.2843 14.7388 38.2197 14.7388C37.9506 14.7388 37.6886 14.632 37.4944 14.4388C37.254 14.1975 37.1472 13.8533 37.2108 13.5183L38.8956 4.67307C38.0255 4.28165 37.1163 3.94262 36.1649 3.67249V3.45475C36.1649 1.74636 34.775 0.356445 33.0666 0.356445H28.9913C27.2818 0.356445 25.8918 1.74636 25.8918 3.45487V3.67261C24.9416 3.94286 24.0324 4.28177 23.1623 4.67319L24.8471 13.5184C24.9107 13.8533 24.8039 14.1975 24.5635 14.439C24.3694 14.6321 24.1073 14.739 23.8372 14.739C23.7725 14.739 23.7077 14.7328 23.6431 14.7205L14.4199 12.9473C13.2117 15.3451 12.5368 18.0408 12.5368 20.9029V21.9301H11.5096C10.9425 21.9301 10.4823 22.3894 10.4823 22.9574C10.4823 23.5245 10.9425 23.9847 11.5096 23.9847H13.5642H14.5915V28.094C14.5915 32.3625 16.1027 36.8642 18.6576 40.468L17.7042 44.2824C17.6303 44.5772 17.6919 44.8885 17.8707 45.1351L18.3269 45.7618C14.1395 46.4727 9.4252 48.2736 3.26237 51.5168C1.37908 52.5071 0.208984 54.4456 0.208984 56.5753V60.968C0.208984 61.5351 0.669189 61.9953 1.23625 61.9953H25.8918H25.8928H26.277C26.278 61.9953 26.278 61.9943 26.2791 61.9943L35.7345 61.9861C35.7509 61.9871 35.7642 61.9954 35.7807 61.9954H60.8205C61.3887 61.9954 61.8478 61.5352 61.8478 60.9681V56.5754C61.8479 54.4456 60.6788 52.5071 58.7958 51.5167ZM16.646 28.094V23.9847H45.4108V28.094C45.4108 32.72 43.7742 36.7912 41.3539 39.8444C41.3179 39.8792 41.2706 39.9009 41.2398 39.9409C40.8865 40.3929 40.5207 40.8192 40.1447 41.22C40.1427 41.222 40.1406 41.2241 40.1386 41.2261C39.8889 41.4901 39.6291 41.7253 39.3702 41.9668C36.8594 44.231 33.8771 45.5584 31.0284 45.5584C28.1806 45.5584 25.1984 44.2311 22.6866 41.9668C22.4287 41.7254 22.1688 41.4901 21.9192 41.2261C21.9171 41.224 21.915 41.2219 21.913 41.22C21.537 40.8194 21.1703 40.3929 20.8169 39.9409C20.786 39.9009 20.7398 39.8792 20.7039 39.8444C18.2835 36.7912 16.646 32.72 16.646 28.094ZM19.8142 44.3142L20.2755 42.4712C20.2776 42.4743 20.2807 42.4763 20.2827 42.4784C22.7658 45.1792 25.9248 47.0818 29.4854 47.5144C29.4874 47.5144 29.4895 47.5153 29.4915 47.5153L26.7033 53.7871L19.8142 44.3142ZM27.1462 59.9396L27.7616 56.8587H34.2963L34.5573 58.1604L34.9117 59.9325L27.1462 59.9396ZM35.3544 53.7871L32.5663 47.5153C32.5684 47.5153 32.5704 47.5144 32.5724 47.5144C36.1331 47.0818 39.2921 45.1793 41.775 42.4784C41.7771 42.4763 41.7802 42.4743 41.7823 42.4712L42.2436 44.3142L35.3544 53.7871Z" fill="#DB1127"/>
<path d="M40.7974 5.66992L39.5122 12.4152L46.5421 11.0633C45.0823 8.89466 43.1304 7.05678 40.7974 5.66992Z" fill="#DB1127"/>
<path d="M21.2604 5.66992C18.9273 7.05678 16.9754 8.89466 15.5156 11.0634L22.5455 12.4154L21.2604 5.66992Z" fill="#DB1127"/>
</svg>
