<svg width="17" height="17" viewBox="0 0 17 17" fill="none" xmlns="http://www.w3.org/2000/svg">
<path d="M4.95018 8.71048C4.95018 8.2527 4.63231 7.97949 4.07135 7.97949C3.84253 7.97949 3.6875 8.00156 3.6062 8.02369V9.49366C3.70231 9.51548 3.82046 9.52295 3.9825 9.52295C4.58098 9.52295 4.95018 9.2202 4.95018 8.71048Z" fill="#DB1127"/>
<path d="M8.42195 7.99463C8.17057 7.99463 8.00847 8.01676 7.91211 8.03892V11.2958C8.00828 11.3183 8.16341 11.3183 8.30378 11.3183C9.32282 11.3254 9.98754 10.7644 9.98754 9.57527C9.99501 8.54092 9.38924 7.99463 8.42195 7.99463Z" fill="#DB1127"/>
<path d="M15.0749 6.08082H14.6667V4.1112C14.6667 4.09891 14.6648 4.08654 14.6631 4.0741C14.6625 3.99589 14.6376 3.91907 14.5841 3.8582L11.3064 0.114012C11.3054 0.113055 11.3044 0.112716 11.3038 0.111666C11.2842 0.0898455 11.2614 0.0716974 11.2374 0.0559876C11.2302 0.0512036 11.223 0.0471913 11.2156 0.0430555C11.1947 0.0316666 11.1726 0.0222222 11.1498 0.0154012C11.1436 0.0136728 11.1381 0.011142 11.1319 0.00953702C11.1071 0.00367283 11.0814 0 11.0554 0H3.00006C2.63222 0 2.3334 0.299166 2.3334 0.666696V6.08067H1.92528C1.39908 6.08067 0.972412 6.50715 0.972412 7.03354V11.9886C0.972412 12.5146 1.39908 12.9414 1.92528 12.9414H2.33343V16.3333C2.33343 16.7008 2.63225 17 3.00009 17H14.0001C14.3676 17 14.6667 16.7008 14.6667 16.3333V12.9414H15.0749C15.601 12.9414 16.0278 12.5146 16.0278 11.9886V7.03369C16.0277 6.50733 15.601 6.08082 15.0749 6.08082ZM3.00006 0.66682H10.7221V4.07771C10.7221 4.26187 10.8715 4.41104 11.0554 4.41104H14V6.08104H3.00006V0.66682ZM11.184 9.53773C11.184 10.4907 10.837 11.1478 10.3562 11.5542C9.8324 11.9899 9.03459 12.1966 8.06002 12.1966C7.47669 12.1966 7.0632 12.1596 6.78222 12.1228V7.23347C7.19577 7.16715 7.73524 7.1302 8.30394 7.1302C9.24875 7.1302 9.8619 7.3002 10.3422 7.66187C10.8589 8.04597 11.184 8.65884 11.184 9.53773ZM2.4908 12.145V7.23347C2.83775 7.17471 3.32543 7.1302 4.01228 7.1302C4.70645 7.1302 5.20139 7.26317 5.53361 7.52921C5.85126 7.78017 6.06493 8.19384 6.06493 8.68131C6.06493 9.16893 5.9029 9.58248 5.60725 9.86294C5.22324 10.2249 4.65463 10.3875 3.98975 10.3875C3.84228 10.3875 3.70889 10.38 3.60596 10.3652V12.1451H2.4908V12.145ZM14.0001 16.1528H3.00006V12.9414H14V16.1528H14.0001ZM14.966 8.09032H13.0528V9.2277H14.8402V10.1436H13.0528V12.145H11.9234V7.16715H14.966V8.09032Z" fill="#DB1127"/>
</svg>
