<svg width="105" height="74" viewBox="0 0 105 74" fill="none" xmlns="http://www.w3.org/2000/svg">
<path d="M24.6787 38.8157C21.9161 38.8157 19.6685 41.0698 19.6685 43.8406C19.6685 46.6115 21.9161 48.8655 24.6787 48.8655C27.4411 48.8655 29.6887 46.6115 29.6887 43.8406C29.6887 41.0698 27.4411 38.8157 24.6787 38.8157ZM24.6787 40.6227C25.226 40.6227 25.7417 40.761 26.1926 41.0043L21.8508 45.3593C21.6079 44.9069 21.4701 44.3894 21.4701 43.8406C21.4701 42.0663 22.9095 40.6227 24.6787 40.6227ZM24.6787 47.0587C24.1105 47.0587 23.577 46.9093 23.1134 46.6484L27.4779 42.2708C27.738 42.7356 27.8869 43.2708 27.8869 43.8406C27.8869 45.615 26.4479 47.0587 24.6787 47.0587Z" fill="#DB1127"/>
<path d="M22.6709 50.4086H16.5448L18.0431 42.922H12.4658L9.97705 55.8576H16.4713L15.6664 60.7464H11.7302L17.0665 69.5624L24.3946 60.7464H21.0046L22.6709 50.4086Z" fill="#FFC369"/>
<path d="M52.7367 40.6594C52.364 40.6129 51.9857 40.5811 51.6005 40.5811C51.2154 40.5811 50.837 40.6129 50.4644 40.6594V50.8065H52.7367V40.6594Z" fill="#DB1127"/>
<path d="M40.2388 31.4913H62.962V17.8574H40.2388V31.4913ZM57.2812 24.6744H59.5535V29.219H57.2812V24.6744ZM52.7365 24.6744H55.0088V29.219H52.7365V24.6744Z" fill="#DB1127"/>
<path d="M55.009 41.2498V51.9422C55.009 52.5705 54.5 53.0783 53.8728 53.0783H49.3282C48.701 53.0783 48.192 52.5705 48.192 51.9422V41.2498C44.8654 42.6018 42.5112 45.8637 42.5112 49.6698C42.5112 54.6814 46.5889 58.7591 51.6005 58.7591C56.6121 58.7591 60.6898 54.6814 60.6898 49.6698C60.6898 45.8637 58.3357 42.6018 55.009 41.2498Z" fill="#DB1127"/>
<path d="M66.3707 13.313H36.8305C36.2045 13.313 35.6943 13.8231 35.6943 14.4491V68.9848C35.6943 69.612 36.2045 70.121 36.8305 70.121H66.3707C66.9967 70.121 67.5068 69.612 67.5068 68.9848V14.4491C67.5068 13.8231 66.9967 13.313 66.3707 13.313ZM40.239 67.8487H37.9667V65.5763H40.239V67.8487ZM61.0228 60.6988L58.7857 58.4617C56.8269 60.066 54.3251 61.0317 51.6006 61.0317C48.8761 61.0317 46.3742 60.066 44.4155 58.4617L42.1784 60.6988L40.5719 59.0923L42.809 56.8552C41.2047 54.8964 40.239 52.3946 40.239 49.6701C40.239 46.9456 41.2047 44.4438 42.809 42.485L40.5719 40.2479L42.1784 38.6414L44.4155 40.8785C46.3742 39.2742 48.8761 38.3085 51.6006 38.3085C54.3251 38.3085 56.8269 39.2742 58.7857 40.8785L61.0228 38.6414L62.6293 40.2479L60.3922 42.485C61.9964 44.4438 62.9622 46.9456 62.9622 49.6701C62.9622 52.3946 61.9964 54.8964 60.3922 56.8552L62.6293 59.0923L61.0228 60.6988ZM65.2345 67.8487H62.9622V65.5763H65.2345V67.8487ZM65.2345 32.6277C65.2345 33.2549 64.7255 33.7639 64.0983 33.7639H39.1028C38.4757 33.7639 37.9667 33.2549 37.9667 32.6277V16.7215C37.9667 16.0943 38.4757 15.5853 39.1028 15.5853H64.0983C64.7255 15.5853 65.2345 16.0943 65.2345 16.7215V32.6277Z" fill="#DB1127"/>
<path d="M93.6381 31.4916V28.0831C93.6381 27.2446 93.178 26.5197 92.5019 26.1255V21.2661H90.2296V26.1255C89.5536 26.5186 89.0935 27.2435 89.0935 28.0831V31.4916H85.685V33.7639H89.0935V59.8955H90.2296V63.304C90.2296 64.5572 89.2105 65.5763 87.9573 65.5763H78.2363C78.6272 64.9049 78.868 64.1357 78.868 63.304V59.8955H80.0042V33.7639H83.4127V31.4916H80.0042V28.0831C80.0042 27.2446 79.544 26.5197 78.868 26.1255V21.2661H76.5957V26.1255C75.9197 26.5186 75.4595 27.2435 75.4595 28.0831V31.4916H72.0511V33.7639H75.4595V59.8955H76.5957V63.304C76.5957 64.5572 75.5766 65.5763 74.3234 65.5763H68.6426V67.8487H74.3234H87.9573C90.4637 67.8487 92.5019 65.8104 92.5019 63.304V59.8955H93.6381V33.7639H97.0466V31.4916H93.6381Z" fill="#DB1127"/>
<path d="M75.1266 15.2523L73.5201 13.6458L77.2614 9.9044H73.1872C72.7281 9.9044 72.3134 9.62718 72.1373 9.20339C71.9612 8.77847 72.0589 8.28992 72.3839 7.96498L78.0647 2.28418L79.6712 3.89071L75.9298 7.63208H80.0041C80.4631 7.63208 80.8778 7.90931 81.0539 8.3331C81.23 8.75802 81.1323 9.24657 80.8074 9.57151L75.1266 15.2523Z" fill="#FFC369"/>
<path d="M86.4884 19.7974L84.8819 18.1908L88.6232 14.4494H84.549C84.09 14.4494 83.6753 14.1722 83.4992 13.7484C83.3231 13.3235 83.4208 12.835 83.7457 12.51L89.4265 6.82922L91.033 8.43575L87.2917 12.1771H91.3659C91.8249 12.1771 92.2396 12.4544 92.4157 12.8781C92.5918 13.3031 92.4941 13.7916 92.1692 14.1166L86.4884 19.7974Z" fill="#FFC369"/>
<path d="M97.8502 15.2523L96.2437 13.6458L99.9851 9.9044H95.9108C95.4518 9.9044 95.0371 9.62718 94.861 9.20339C94.6849 8.77847 94.7826 8.28992 95.1075 7.96498L100.788 2.28418L102.395 3.89071L98.6535 7.63208H102.728C103.187 7.63208 103.601 7.90931 103.778 8.3331C103.954 8.75802 103.856 9.24657 103.531 9.57151L97.8502 15.2523Z" fill="#FFC369"/>
</svg>
