<svg width="76" height="76" viewBox="0 0 76 76" fill="none" xmlns="http://www.w3.org/2000/svg">
<rect x="28" y="6" width="16" height="15" fill="#FFC369"/>
<rect x="28" y="22" width="16" height="15" fill="#FFC369"/>
<path d="M61.75 61.749C61.75 63.7131 60.1516 65.3115 58.1875 65.3115H48.6875V67.6865H59.375C61.9946 67.6865 64.125 65.5561 64.125 62.9365V52.249H61.75V61.749Z" fill="#DB1127"/>
<path d="M59.375 41.5601H66.5V45.1237H59.375V41.5601Z" fill="#DB1127"/>
<path d="M61.75 47.499H64.125V49.8752H61.75V47.499Z" fill="#DB1127"/>
<path d="M42.75 3.5625H7.125C5.16087 3.5625 3.5625 5.15969 3.5625 7.125V68.875C3.5625 70.8379 5.16087 72.4375 7.125 72.4375H42.75C44.7141 72.4375 46.3125 70.8379 46.3125 68.875V7.125C46.3125 5.15969 44.7141 3.5625 42.75 3.5625ZM9.49881 9.5H23.7488C25.7129 9.5 27.3113 11.0984 27.3113 13.0625C27.3113 15.0266 25.7129 16.625 23.7488 16.625H9.49881C7.53469 16.6238 5.9375 15.0266 5.9375 13.0625C5.9375 11.0972 7.53469 9.5 9.49881 9.5ZM23.75 20.1875V22.5625H9.5V20.1875H23.75ZM5.9375 29.6875C5.9375 27.7222 7.53469 26.125 9.49881 26.125H23.7488C25.7129 26.125 27.3113 27.7234 27.3113 29.6875C27.3113 31.6516 25.7129 33.25 23.7488 33.25H9.49881C7.53469 33.2488 5.9375 31.6516 5.9375 29.6875ZM33.25 70.0613H16.625C14.6597 70.0613 13.0625 68.4629 13.0625 66.5C13.0625 64.5359 14.6597 62.9375 16.6238 62.9375H33.2488C35.2129 62.9375 36.8113 64.5347 36.8113 66.4976C36.8125 68.4629 35.2141 70.0613 33.25 70.0613ZM41.5625 59.3726C41.5625 60.0293 41.0317 60.5601 40.375 60.5601H9.5C8.84331 60.5601 8.3125 60.0293 8.3125 59.3726V40.3738C8.3125 39.7171 8.84331 39.1863 9.5 39.1863H40.375C41.0317 39.1863 41.5625 39.7171 41.5625 40.3738V59.3726ZM36.8125 36.8113C32.8831 36.8113 29.6875 33.6158 29.6875 29.6863C29.6875 25.7569 32.8831 22.5613 36.8125 22.5613C40.7407 22.5613 43.9375 25.7569 43.9375 29.6863C43.9375 33.6158 40.7407 36.8113 36.8125 36.8113ZM36.8125 20.1863C32.8831 20.1863 29.6875 16.9907 29.6875 13.0613C29.6875 9.13187 32.8831 5.93631 36.8125 5.93631C40.7407 5.93631 43.9375 9.13187 43.9375 13.0613C43.9375 16.9907 40.7407 20.1863 36.8125 20.1863Z" fill="#DB1127"/>
<path d="M36.8125 24.9375C34.1929 24.9375 32.0625 27.0679 32.0625 29.6875C32.0625 32.3071 34.1929 34.4375 36.8125 34.4375C39.4321 34.4375 41.5625 32.3071 41.5625 29.6875C41.5625 27.0667 39.4321 24.9375 36.8125 24.9375ZM40.375 30.875L36.8125 30.8738V28.4988H40.375V30.875Z" fill="#DB1127"/>
<path d="M36.8125 8.3125C34.1929 8.3125 32.0625 10.4429 32.0625 13.0625C32.0625 15.6821 34.1929 17.8125 36.8125 17.8125C39.4321 17.8125 41.5625 15.6821 41.5625 13.0625C41.5625 10.4417 39.4321 8.3125 36.8125 8.3125ZM35.9717 13.9021L33.5967 11.5271L35.2771 9.84675L37.6521 12.2217L35.9717 13.9021Z" fill="#DB1127"/>
<path d="M10.6875 58.1853H39.1875V41.5615H10.6875V58.1853ZM13.0625 45.1252H17.8125V43.9365H20.1875V45.1252H36.8125V47.499H20.1875V48.6853H17.8125V47.499H13.0625V45.1252ZM13.0625 52.2502H28.5V51.0615H30.875V52.2502H36.8125V54.624H30.875V55.8103H28.5V54.624H13.0625V52.2502Z" fill="#DB1127"/>
<path d="M58.1875 22.5625H67.6875V29.6875H58.1875V22.5625Z" fill="#DB1127"/>
<path d="M53.4375 17.8125V39.1863H72.4375V17.8125H53.4375ZM59.375 36.8125H57V34.4375H59.375V36.8125ZM64.125 36.8125H61.75V34.4375H64.125V36.8125ZM68.875 36.8125H66.5V34.4375H68.875V36.8125ZM70.0625 30.8738C70.0625 31.5305 69.5317 32.0613 68.875 32.0613H57C56.3433 32.0613 55.8125 31.5305 55.8125 30.8738V21.3738C55.8125 20.7171 56.3433 20.1863 57 20.1863H68.875C69.5317 20.1863 70.0625 20.7171 70.0625 21.3738V30.8738Z" fill="#DB1127"/>
<path d="M9.49881 14.2488H23.7488C24.4043 14.2488 24.9363 13.7168 24.9363 13.0625C24.9363 12.407 24.4043 11.875 23.7488 11.875H9.49881C8.8445 11.875 8.3125 12.407 8.3125 13.0625C8.3125 13.7168 8.8445 14.2488 9.49881 14.2488Z" fill="#DB1127"/>
<path d="M33.25 65.3125H16.625C15.9695 65.3125 15.4375 65.8433 15.4375 66.4976C15.4375 67.1543 15.9695 67.6863 16.6238 67.6863H33.2488C33.9043 67.6863 34.4363 67.1543 34.4363 66.5C34.4375 65.8445 33.9043 65.3125 33.25 65.3125Z" fill="#DB1127"/>
<path d="M23.75 30.8738C24.4055 30.8738 24.9375 30.3418 24.9375 29.6875C24.9375 29.032 24.4055 28.5 23.75 28.5H9.5C8.8445 28.5 8.3125 29.032 8.3125 29.6875C8.3125 30.3418 8.8445 30.875 9.49881 30.875H23.75V30.8738Z" fill="#DB1127"/>
</svg>
