<svg width="83" height="83" viewBox="0 0 83 83" fill="none" xmlns="http://www.w3.org/2000/svg">
<g clip-path="url(#clip0)">
<path d="M0 39.0684H9.88867V43.9316H0V39.0684Z" fill="#DB1127"/>
<path d="M73.1113 39.0684H83V43.9316H73.1113V39.0684Z" fill="#DB1127"/>
<path d="M62.1328 17.4287L69.0098 10.5518L72.4483 13.9902L65.5713 20.8672L62.1328 17.4287Z" fill="#DB1127"/>
<path d="M17.4278 20.8667L10.5508 13.9898L13.9893 10.5513L20.8663 17.4283L17.4278 20.8667Z" fill="#DB1127"/>
<path d="M39.0684 0H43.9316V9.88867H39.0684V0Z" fill="#DB1127"/>
<path d="M19.6152 73.2734C16.929 73.2734 14.752 75.4505 14.752 78.1367V83H68.248V78.1367C68.248 75.4505 66.071 73.2734 63.3848 73.2734H19.6152Z" fill="#DB1127"/>
<rect x="36" y="31" width="10" height="31" fill="#FFC369"/>
<path d="M19.6152 41.5V68.4102H63.3848V41.5C63.3848 29.4324 53.5676 19.6152 41.5 19.6152C29.4324 19.6152 19.6152 29.4324 19.6152 41.5ZM39.0684 34.2051H43.9316V48.7949H39.0684V34.2051ZM39.0684 53.6582H43.9316V58.5215H39.0684V53.6582Z" fill="#DB1127"/>
</g>
<defs>
<clipPath id="clip0">
<rect width="83" height="83" fill="white"/>
</clipPath>
</defs>
</svg>
