<svg width="69" height="69" viewBox="0 0 69 69" fill="none" xmlns="http://www.w3.org/2000/svg">
<rect x="5" y="4" width="35" height="60" fill="#FFC369"/>
<path d="M44.3572 0H1.23216C0.551596 0 0 0.551596 0 1.23216V67.7678C0 68.4484 0.551596 69 1.23216 69H44.3572C45.0376 69 45.5893 68.4484 45.5893 67.7678V1.23216C45.5893 0.551596 45.0376 0 44.3572 0ZM37.9019 29.1377L9.5627 62.4055C9.18023 62.8541 8.53349 62.969 8.02004 62.6795C7.50645 62.39 7.26993 61.7772 7.45577 61.2177L15.541 36.9642H9.85716C9.49006 36.9641 9.14223 36.8003 8.90828 36.5174C8.67432 36.2346 8.57864 35.8622 8.64724 35.5016L13.5758 9.62658C13.6864 9.04547 14.1942 8.625 14.7857 8.62487H32.0357C32.4318 8.62473 32.8037 8.81502 33.0354 9.1363C33.267 9.45758 33.3301 9.8705 33.205 10.2464L27.584 27.107H36.9643C37.4445 27.1073 37.8809 27.3867 38.0822 27.8226C38.2834 28.2587 38.2132 28.7719 37.9019 29.1377Z" fill="#DB1127"/>
<path d="M24.8759 29.0605C24.6445 28.7396 24.5812 28.3271 24.7058 27.9515L30.3269 11.0896H15.8062L11.3457 34.5004H17.2502C17.6463 34.5003 18.0182 34.6906 18.2499 35.0118C18.4815 35.3331 18.5446 35.7462 18.4196 36.1219L11.7992 55.9816L34.2956 29.5719H25.8752C25.4792 29.5718 25.1076 29.3816 24.8759 29.0605Z" fill="#DB1127"/>
<path d="M65.3034 30.8034C67.3449 30.8034 68.9999 29.1484 68.9999 27.1069C68.9999 25.0654 67.3449 23.4104 65.3034 23.4104C63.2619 23.4104 61.6069 25.0654 61.6069 27.1069C61.6069 29.1484 63.2619 30.8034 65.3034 30.8034Z" fill="#DB1127"/>
<path d="M59.8515 29.9136L54.2144 34.4602V37.6404L61.4088 31.8407C60.7646 31.3104 60.2347 30.6548 59.8515 29.9136Z" fill="#DB1127"/>
<path d="M51.7502 23.4104H48.0537V50.5176H51.7502V23.4104Z" fill="#DB1127"/>
</svg>
