<svg width="96" height="75" viewBox="0 0 96 75" fill="none" xmlns="http://www.w3.org/2000/svg">
<path d="M2.46963 70.2671V49.6868H11.8778C14.4846 49.6868 16.4838 50.3826 17.8754 51.7742C19.0515 52.9502 19.6395 54.5379 19.6395 56.5371C19.6395 59.6927 18.1695 61.8194 15.2294 62.917L20.2569 70.2671H14.9648L10.4959 63.6814H6.9973V70.2671H2.46963ZM6.9973 59.6829H11.5838C12.6814 59.6829 13.534 59.4183 14.1416 58.8891C14.7492 58.3403 15.053 57.6151 15.053 56.7135C15.053 55.7531 14.7394 55.0279 14.1122 54.5379C13.485 54.0283 12.6128 53.7735 11.4956 53.7735H6.9973V59.6829Z" fill="#DB1127"/>
<path d="M44.0797 40.9212C43.7095 40.8743 43.3336 40.8423 42.951 40.8423C42.5683 40.8423 42.1925 40.8743 41.8223 40.9212V51.1326H44.0797V40.9212Z" fill="#DB1127"/>
<path d="M31.6636 31.6943H54.2378V17.9739H31.6636V31.6943ZM48.5943 24.8341H50.8517V29.4076H48.5943V24.8341ZM44.0794 24.8341H46.3368V29.4076H44.0794V24.8341Z" fill="#DB1127"/>
<path d="M46.3367 41.5156V52.2759C46.3367 52.9082 45.8311 53.4193 45.208 53.4193H40.6932C40.0701 53.4193 39.5645 52.9082 39.5645 52.2759V41.5156C36.2596 42.8762 33.9209 46.1589 33.9209 49.9891C33.9209 55.0326 37.9718 59.1361 42.9506 59.1361C47.9294 59.1361 51.9803 55.0326 51.9803 49.9891C51.9803 46.1589 49.6416 42.8762 46.3367 41.5156Z" fill="#DB1127"/>
<path d="M57.6242 13.4009H28.2776C27.6557 13.4009 27.1489 13.9143 27.1489 14.5443V69.4261C27.1489 70.0572 27.6557 70.5694 28.2776 70.5694H57.6242C58.2461 70.5694 58.7529 70.0572 58.7529 69.4261V14.5443C58.7529 13.9143 58.2461 13.4009 57.6242 13.4009ZM31.6638 68.2827H29.4064V65.996H31.6638V68.2827ZM52.3113 61.0875L50.0889 58.8362C48.143 60.4506 45.6576 61.4225 42.9509 61.4225C40.2443 61.4225 37.7588 60.4506 35.8129 58.8362L33.5905 61.0875L31.9945 59.4707L34.2169 57.2194C32.6232 55.2483 31.6638 52.7306 31.6638 49.9888C31.6638 47.247 32.6232 44.7292 34.2169 42.7581L31.9945 40.5068L33.5905 38.8901L35.8129 41.1414C37.7588 39.5269 40.2443 38.555 42.9509 38.555C45.6576 38.555 48.143 39.5269 50.0889 41.1414L52.3113 38.8901L53.9073 40.5068L51.6849 42.7581C53.2786 44.7292 54.238 47.247 54.238 49.9888C54.238 52.7306 53.2786 55.2483 51.6849 57.2194L53.9073 59.4707L52.3113 61.0875ZM56.4955 68.2827H54.238V65.996H56.4955V68.2827ZM56.4955 32.8382C56.4955 33.4693 55.9898 33.9816 55.3667 33.9816H30.5351C29.912 33.9816 29.4064 33.4693 29.4064 32.8382V16.831C29.4064 16.1999 29.912 15.6876 30.5351 15.6876H55.3667C55.9898 15.6876 56.4955 16.1999 56.4955 16.831V32.8382Z" fill="#DB1127"/>
<path d="M84.713 31.6954V28.2653C84.713 27.4214 84.2559 26.692 83.5843 26.2952V21.405H81.3269V26.2952C80.6553 26.6908 80.1982 27.4203 80.1982 28.2653V31.6954H76.812V33.9821H80.1982V60.2797H81.3269V63.7098C81.3269 64.9709 80.3144 65.9965 79.0695 65.9965H69.4122C69.8005 65.3208 70.0398 64.5467 70.0398 63.7098V60.2797H71.1685V33.9821H74.5546V31.6954H71.1685V28.2653C71.1685 27.4214 70.7113 26.692 70.0398 26.2952V21.405H67.7823V26.2952C67.1108 26.6908 66.6536 27.4203 66.6536 28.2653V31.6954H63.2675V33.9821H66.6536V60.2797H67.7823V63.7098C67.7823 64.9709 66.7699 65.9965 65.5249 65.9965H59.8813V68.2833H65.5249H79.0695C81.5594 68.2833 83.5843 66.232 83.5843 63.7098V60.2797H84.713V33.9821H88.0992V31.6954H84.713Z" fill="#DB1127"/>
<path d="M66.3232 15.3528L64.7272 13.7361L68.4441 9.97096H64.3965C63.9405 9.97096 63.5285 9.69198 63.3536 9.2655C63.1786 8.83788 63.2757 8.34623 63.5985 8.01922L69.2421 2.30237L70.8381 3.9191L67.1212 7.68422H71.1688C71.6248 7.68422 72.0368 7.9632 72.2117 8.38968C72.3867 8.8173 72.2896 9.30895 71.9668 9.63595L66.3232 15.3528Z" fill="#FFC369"/>
<path d="M77.6103 19.9263L76.0143 18.3096L79.7312 14.5444H75.6836C75.2276 14.5444 74.8156 14.2655 74.6407 13.839C74.4657 13.4114 74.5628 12.9197 74.8856 12.5927L80.5292 6.87585L82.1252 8.49258L78.4083 12.2577H82.4559C82.9119 12.2577 83.3239 12.5367 83.4988 12.9632C83.6738 13.3908 83.5767 13.8824 83.2539 14.2094L77.6103 19.9263Z" fill="#FFC369"/>
<path d="M88.8974 15.3528L87.3014 13.7361L91.0183 9.97096H86.9707C86.5147 9.97096 86.1027 9.69198 85.9278 9.2655C85.7528 8.83788 85.8499 8.34623 86.1727 8.01922L91.8163 2.30237L93.4123 3.9191L89.6954 7.68422H93.743C94.199 7.68422 94.611 7.9632 94.7859 8.38968C94.9609 8.8173 94.8638 9.30895 94.541 9.63595L88.8974 15.3528Z" fill="#FFC369"/>
</svg>
