<svg width="99" height="69" viewBox="0 0 99 69" fill="none" xmlns="http://www.w3.org/2000/svg">
<path d="M94.6413 22.2581H67.533C65.6648 22.2581 64.1444 23.756 64.1444 25.5968V38.9516C64.1444 40.7924 65.6648 42.2903 67.533 42.2903H68.6625V61.2097C68.6625 64.278 66.129 66.7742 63.0149 66.7742C59.9009 66.7742 57.3674 64.278 57.3674 61.2097V20.0323H58.4969C60.3651 20.0323 61.8854 18.5343 61.8854 16.6935V3.33871C61.8854 1.49797 60.3651 0 58.4969 0H31.3885C29.5203 0 28 1.49797 28 3.33871V16.6935C28 18.5343 29.5203 20.0323 31.3885 20.0323H32.5181V61.2097C32.5181 65.5044 36.0647 69 40.4247 69H44.9427H49.4608H53.9788H58.4969H67.533H72.051H76.5691H81.0871H85.6052C89.9651 69 93.5118 65.5044 93.5118 61.2097V42.2903H94.6413C96.5095 42.2903 98.0299 40.7924 98.0299 38.9516V25.5968C98.0299 23.756 96.5095 22.2581 94.6413 22.2581ZM95.7708 25.5968V26.7097H93.5118V24.4839H94.6413C95.2637 24.4839 95.7708 24.9836 95.7708 25.5968ZM66.4035 31.1613V28.9355H68.6625V31.1613H66.4035ZM70.9215 28.9355H73.1805V31.1613H70.9215V28.9355ZM86.7347 26.7097H84.4757V24.4839H86.7347V26.7097ZM88.9937 24.4839H91.2528V26.7097H88.9937V24.4839ZM82.2167 26.7097H79.9576V24.4839H82.2167V26.7097ZM77.6986 26.7097H75.4396V24.4839H77.6986V26.7097ZM73.1805 26.7097H70.9215V24.4839H73.1805V26.7097ZM75.4396 28.9355H77.6986V31.1613H75.4396V28.9355ZM79.9576 28.9355H82.2167V31.1613H79.9576V28.9355ZM84.4757 28.9355H86.7347V31.1613H84.4757V28.9355ZM88.9937 28.9355H91.2528V31.1613H88.9937V28.9355ZM93.5118 28.9355H95.7708V31.1613H93.5118V28.9355ZM67.533 24.4839H68.6625V26.7097H66.4035V25.5968C66.4035 24.9836 66.9106 24.4839 67.533 24.4839ZM91.2528 40.0645H70.9215V37.8387H91.2528V40.0645ZM75.4396 42.2903H77.6986V61.2097C77.6986 63.9007 75.7491 66.1499 73.1704 66.6629C74.5721 65.2562 75.4396 63.332 75.4396 61.2097V42.2903ZM79.9576 61.2097V42.2903H82.2167V61.2097C82.2167 63.9007 80.2671 66.1499 77.6884 66.6629C79.0902 65.2562 79.9576 63.332 79.9576 61.2097ZM82.2065 66.6629C83.6082 65.2562 84.4757 63.332 84.4757 61.2097V42.2903H86.7347V61.2097C86.7347 63.9007 84.7852 66.1499 82.2065 66.6629ZM70.9215 61.2097V42.2903H73.1805V61.2097C73.1805 63.9007 71.231 66.1499 68.6523 66.6629C70.0541 65.2562 70.9215 63.332 70.9215 61.2097ZM39.2951 61.2097V20.0323H41.5542V61.2097C41.5542 63.332 42.4216 65.2562 43.8234 66.6629C41.2447 66.1499 39.2951 63.9007 39.2951 61.2097ZM55.1083 17.8065H34.7771V15.5806H55.1083V17.8065ZM43.8132 61.2097V20.0323H46.0722V61.2097C46.0722 63.332 46.9397 65.2562 48.3414 66.6629C45.7627 66.1499 43.8132 63.9007 43.8132 61.2097ZM48.3312 61.2097V20.0323H50.5903V61.2097C50.5903 63.332 51.4577 65.2562 52.8595 66.6629C50.2808 66.1499 48.3312 63.9007 48.3312 61.2097ZM57.3775 66.6629C54.7988 66.1499 52.8493 63.9007 52.8493 61.2097V20.0323H55.1083V61.2097C55.1083 63.332 55.9758 65.2562 57.3775 66.6629ZM30.259 8.90323V6.67742H32.5181V8.90323H30.259ZM34.7771 6.67742H37.0361V8.90323H34.7771V6.67742ZM50.5903 4.45161H48.3312V2.22581H50.5903V4.45161ZM52.8493 2.22581H55.1083V4.45161H52.8493V2.22581ZM46.0722 4.45161H43.8132V2.22581H46.0722V4.45161ZM41.5542 4.45161H39.2951V2.22581H41.5542V4.45161ZM37.0361 4.45161H34.7771V2.22581H37.0361V4.45161ZM39.2951 6.67742H41.5542V8.90323H39.2951V6.67742ZM43.8132 6.67742H46.0722V8.90323H43.8132V6.67742ZM48.3312 6.67742H50.5903V8.90323H48.3312V6.67742ZM52.8493 6.67742H55.1083V8.90323H52.8493V6.67742ZM57.3674 6.67742H59.6264V8.90323H57.3674V6.67742ZM59.6264 3.33871V4.45161H57.3674V2.22581H58.4969C59.1192 2.22581 59.6264 2.7255 59.6264 3.33871ZM31.3885 2.22581H32.5181V4.45161H30.259V3.33871C30.259 2.7255 30.7662 2.22581 31.3885 2.22581ZM30.259 16.6935V11.129H59.6264V16.6935C59.6264 17.3068 59.1192 17.8065 58.4969 17.8065H57.3674V13.3548H32.5181V17.8065H31.3885C30.7662 17.8065 30.259 17.3068 30.259 16.6935ZM34.7771 61.2097V20.0323H37.0361V61.2097C37.0361 63.332 37.9036 65.2562 39.3053 66.6629C36.7266 66.1499 34.7771 63.9007 34.7771 61.2097ZM91.2528 61.2097C91.2528 63.9007 89.3032 66.1499 86.7245 66.6629C88.1263 65.2562 88.9937 63.332 88.9937 61.2097V42.2903H91.2528V61.2097ZM94.6413 40.0645H93.5118V35.6129H68.6625V40.0645H67.533C66.9106 40.0645 66.4035 39.5659 66.4035 38.9516V33.3871H95.7708V38.9516C95.7708 39.5659 95.2637 40.0645 94.6413 40.0645Z" fill="#DB1127"/>
<path d="M19.5991 61.8308C19.5991 63.0191 18.6061 63.9858 17.3857 63.9858C16.1652 63.9858 15.1723 63.0191 15.1723 61.8308C15.1723 60.976 15.6859 60.2361 16.4285 59.8879V51.1139C16.4285 50.5992 16.857 50.182 17.3857 50.182C17.9143 50.182 18.3428 50.5992 18.3428 51.1139V59.8879C19.0854 60.2361 19.5991 60.976 19.5991 61.8308ZM26 42.9016C26 43.4163 25.5715 43.8335 25.0429 43.8335H21.3937V47.794H23.8464C24.3751 47.794 24.8036 48.2112 24.8036 48.7259C24.8036 49.2406 24.3751 49.6578 23.8464 49.6578H21.3937V53.6184H22.65C23.1786 53.6184 23.6071 54.0356 23.6071 54.5503C23.6071 55.065 23.1786 55.4822 22.65 55.4822H21.3937V57.5854C22.616 58.6758 23.308 60.1984 23.308 61.8308C23.308 65.0102 20.6513 67.5969 17.3857 67.5969C14.1201 67.5969 11.4633 65.0102 11.4633 61.8308C11.4633 60.1985 12.1554 58.6759 13.3776 57.5854V42.6103C13.3776 40.4586 15.1756 38.708 17.3857 38.708C19.3716 38.708 21.0238 40.1218 21.3388 41.9697H25.0429C25.5715 41.9697 26 42.3869 26 42.9016ZM21.3937 61.8308C21.3937 60.6194 20.8304 59.4972 19.8482 58.752C19.6155 58.5755 19.4794 58.3042 19.4794 58.017V42.6103C19.4794 41.4863 18.5402 40.5718 17.3857 40.5718C16.2312 40.5718 15.2919 41.4863 15.2919 42.6103V58.017C15.2919 58.3042 15.1559 58.5755 14.9231 58.752C13.9409 59.4972 13.3776 60.6195 13.3776 61.8308C13.3776 63.9825 15.1756 65.7331 17.3857 65.7331C19.5957 65.7331 21.3937 63.9825 21.3937 61.8308ZM1.92011 43.1854C1.86813 42.4683 2.17633 41.6825 2.83611 40.8498C3.15902 40.4423 3.0815 39.8572 2.66292 39.5428C2.24441 39.2283 1.64332 39.3037 1.32046 39.7114C0.365227 40.9168 -0.0754803 42.1298 0.0105435 43.3166C0.149629 45.2356 1.50992 45.9496 1.62681 47.2904C1.68998 48.0154 1.4081 48.804 0.788944 49.6346C0.32718 50.2541 0.790201 51.114 1.5628 51.114C1.85892 51.114 2.15097 50.9806 2.33821 50.7294C3.235 49.5263 3.63742 48.3162 3.53429 47.1328C3.36637 45.2072 2.01475 44.491 1.92011 43.1854ZM6.70586 43.1854C6.65387 42.4683 6.96207 41.6825 7.62185 40.8498C7.94477 40.4423 7.86724 39.8572 7.44866 39.5428C7.03015 39.2283 6.42912 39.3037 6.1062 39.7114C5.15097 40.9168 4.71026 42.1298 4.79629 43.3166C4.93537 45.2356 6.29566 45.9496 6.41255 47.2904C6.47572 48.0154 6.19384 48.804 5.57469 49.6346C5.11292 50.2541 5.57594 51.114 6.34854 51.114C6.64466 51.114 6.93671 50.9806 7.12395 50.7294C8.02074 49.5263 8.42316 48.3162 8.32003 47.1328C8.15211 45.2072 6.8005 44.491 6.70586 43.1854Z" fill="#DB1127"/>
</svg>
