<svg width="50" height="48" viewBox="0 0 50 48" fill="none" xmlns="http://www.w3.org/2000/svg">
<path d="M31.7419 20.1963C31.6822 19.701 31.494 19.2493 31.2046 18.8721L33.191 6.54476C33.2649 6.08608 32.9707 5.64879 32.5181 5.54422L32.4959 5.5392C32.0433 5.43464 31.5872 5.69884 31.4525 6.14343L27.8339 18.0937C26.9422 18.5421 26.3231 19.4562 26.3231 20.5207C26.3231 22.0238 27.5454 23.2468 29.0485 23.2468C29.3285 23.2468 29.5934 23.1922 29.8478 23.1134L37.4074 27.042C37.8234 27.2581 38.3353 27.1231 38.5905 26.73L38.602 26.7124C38.8573 26.3194 38.7724 25.7967 38.4056 25.5047L31.7419 20.1963ZM27.7023 20.5207C27.7023 19.7785 28.3064 19.1745 29.0485 19.1745C29.7914 19.1745 30.3954 19.7785 30.3954 20.5207C30.3954 21.2634 29.7914 21.8676 29.0485 21.8676C28.3064 21.8676 27.7023 21.2635 27.7023 20.5207ZM49.5692 20.5207C49.5692 29.6455 43.5812 37.3947 35.3295 40.0543L35.3291 37.1323C42.032 34.5894 46.8108 28.104 46.8108 20.5207C46.8108 10.7267 38.8424 2.75846 29.0485 2.75846C19.2546 2.75846 11.2863 10.7267 11.2863 20.5207C11.2863 21.5032 11.3701 22.4661 11.5243 23.4058H8.73472C8.6014 22.4625 8.52785 21.5002 8.52785 20.5207C8.52785 9.20538 17.7332 0 29.0485 0C40.3639 0 49.5692 9.20538 49.5692 20.5207ZM32.6258 35.1426L26.309 28.8947C25.909 28.4947 25.3642 28.274 24.8056 28.274H21.6196V27.081C21.6196 26.1913 20.8955 25.4742 20.0059 25.4742H1.60703C0.717458 25.4742 0.000242986 26.1913 0.000242986 27.081V37.8388H33.2603V36.6666C33.2602 36.0943 33.0326 35.5426 32.6258 35.1426ZM29.8742 35.3496H23.7574C23.6194 35.3496 23.5091 35.2392 23.5091 35.1013V30.3774C23.5091 30.2395 23.6193 30.1291 23.7574 30.1291H24.9228C24.9849 30.1291 25.0538 30.1568 25.1021 30.1981L30.0467 34.9221C30.2121 35.0736 30.1017 35.3496 29.8742 35.3496ZM33.261 38.7277V42.2867C33.261 43.1745 32.5412 43.8943 31.6534 43.8943H29.9333C29.6225 41.7615 27.7844 40.1218 25.5661 40.1218C23.3529 40.1218 21.5149 41.7615 21.2041 43.8943H12.4855C12.1748 41.7615 10.3367 40.1218 8.1236 40.1218C5.91048 40.1218 4.07245 41.7615 3.76167 43.8943H1.6076C0.719726 43.8941 0 43.1745 0 42.2868V38.7277H33.261ZM25.571 41.1974C23.7298 41.1974 22.2333 42.687 22.2333 44.5282C22.2333 46.3695 23.7298 47.8661 25.571 47.8661C27.4123 47.8661 28.9019 46.3695 28.9019 44.5282C28.9019 42.687 27.4123 41.1974 25.571 41.1974ZM25.571 46.1972C24.647 46.1972 23.9022 45.4524 23.9022 44.5282C23.9022 43.611 24.6469 42.8594 25.571 42.8594C26.4882 42.8594 27.233 43.611 27.233 44.5282C27.233 45.4524 26.4882 46.1972 25.571 46.1972ZM8.12385 41.1974C6.28266 41.1974 4.7861 42.687 4.7861 44.5282C4.7861 46.3695 6.28266 47.8661 8.12385 47.8661C9.96512 47.8661 11.4547 46.3695 11.4547 44.5282C11.4547 42.687 9.96512 41.1974 8.12385 41.1974ZM8.12385 46.1972C7.19977 46.1972 6.45502 45.4524 6.45502 44.5282C6.45502 43.611 7.19977 42.8594 8.12385 42.8594C9.04104 42.8594 9.79268 43.611 9.79268 44.5282C9.79268 45.4524 9.04104 46.1972 8.12385 46.1972Z" fill="#DB1127"/>
</svg>
