<svg width="26" height="26" viewBox="0 0 26 26" fill="none" xmlns="http://www.w3.org/2000/svg">
<g clip-path="url(#clip0)">
<path d="M11.5319 25.7907C5.27335 25.7907 0.208984 20.7263 0.208984 14.4678V13.629H1.04772V14.4678C1.04772 20.2625 5.73715 24.952 11.5319 24.952H12.3707V25.7907H11.5319Z" fill="#FFC369"/>
<path d="M0.650363 17.6009L1.46105 17.3837C1.42214 17.2493 1.38528 17.1144 1.35211 16.978L0.541016 17.1953C0.574598 17.3317 0.611866 17.4662 0.650363 17.6009Z" fill="white"/>
<path d="M2.55628 19.8919C2.48399 19.7724 2.41478 19.6511 2.34741 19.5287L1.62109 19.9481C1.68887 20.0701 1.75768 20.1917 1.82975 20.3113L2.55628 19.8919Z" fill="white"/>
<path d="M3.67541 22.6207L4.26884 22.0277C4.16809 21.9313 4.06918 21.8324 3.97233 21.7312L3.37891 22.3242C3.47576 22.4254 3.57426 22.5239 3.67541 22.6207Z" fill="white"/>
<path d="M6.47152 23.6523C6.34906 23.5848 6.22743 23.5162 6.10825 23.4435L5.68848 24.1698C5.80806 24.2421 5.9297 24.3109 6.05174 24.3787L6.47152 23.6523Z" fill="white"/>
<path d="M9.02191 24.648C8.88595 24.6144 8.751 24.5776 8.61708 24.5391L8.39941 25.3491C8.53333 25.3878 8.66787 25.4251 8.80383 25.4587L9.02191 24.648Z" fill="white"/>
<path d="M14.4296 25.7907C20.6881 25.7907 25.7525 20.7263 25.7525 14.4678V13.629H24.9138V14.4678C24.9138 20.2625 20.2243 24.952 14.4296 24.952H13.5908V25.7907H14.4296Z" fill="#FFC369"/>
<path d="M25.3112 17.6009L24.5005 17.3837C24.5396 17.2493 24.5765 17.1144 24.6096 16.978L25.4207 17.1953C25.3871 17.3317 25.3497 17.4662 25.3112 17.6009Z" fill="white"/>
<path d="M23.4058 19.8919C23.4778 19.7724 23.5471 19.6511 23.6146 19.5287L24.3409 19.9481C24.273 20.0701 24.2042 20.1917 24.1321 20.3113L23.4058 19.8919Z" fill="white"/>
<path d="M22.2868 22.6207L21.6934 22.0277C21.7939 21.9313 21.893 21.8324 21.9899 21.7312L22.5833 22.3242C22.486 22.4254 22.3873 22.5239 22.2868 22.6207Z" fill="white"/>
<path d="M19.4902 23.6523C19.6127 23.5848 19.7343 23.5162 19.8533 23.4435L20.2731 24.1698C20.1537 24.2421 20.0321 24.3109 19.91 24.3787L19.4902 23.6523Z" fill="white"/>
<path d="M16.9399 24.648C17.0757 24.6144 17.2109 24.5776 17.3446 24.5391L17.5622 25.3491C17.4285 25.3878 17.2938 25.4251 17.158 25.4587L16.9399 24.648Z" fill="white"/>
<path d="M14.4681 0.209351C20.7267 0.209351 25.7911 5.27372 25.7911 11.5323V12.371H24.9523V11.5323C24.9523 5.73752 20.2629 1.04809 14.4681 1.04809H13.6294V0.209351H14.4681Z" fill="#FFC369"/>
<path d="M25.3495 8.39905L24.5391 8.61631C24.578 8.75064 24.6148 8.88558 24.648 9.02196L25.4591 8.8047C25.4255 8.66832 25.3882 8.53379 25.3495 8.39905Z" fill="white"/>
<path d="M23.4438 6.10809C23.5161 6.22767 23.5853 6.3489 23.6527 6.47135L24.379 6.05198C24.3113 5.92994 24.2424 5.80831 24.1702 5.68872L23.4438 6.10809Z" fill="white"/>
<path d="M22.3249 3.37927L21.7314 3.97229C21.8322 4.06873 21.9311 4.16764 22.028 4.26879L22.6214 3.67578C22.5245 3.57462 22.426 3.47613 22.3249 3.37927Z" fill="white"/>
<path d="M19.5283 2.34766C19.6508 2.41503 19.7724 2.48383 19.8916 2.55652L20.3114 1.83C20.1918 1.75792 20.0701 1.68912 19.9481 1.62134L19.5283 2.34766Z" fill="white"/>
<path d="M16.978 1.35207C17.114 1.38565 17.2489 1.42251 17.3829 1.461L17.6005 0.650729C17.4666 0.612232 17.3321 0.574964 17.1961 0.541382L16.978 1.35207Z" fill="white"/>
<path d="M11.5705 0.209351C5.31192 0.209351 0.247559 5.27372 0.247559 11.5323V12.371H1.0863V11.5323C1.0863 5.73752 5.77573 1.04809 11.5705 1.04809H12.4092V0.209351H11.5705Z" fill="#FFC369"/>
<path d="M0.689142 8.39905L1.49982 8.61631C1.46071 8.75064 1.42386 8.88558 1.39068 9.02196L0.57959 8.8047C0.613172 8.66832 0.65044 8.53379 0.689142 8.39905Z" fill="white"/>
<path d="M2.59436 6.10809C2.52228 6.22767 2.45307 6.3489 2.3855 6.47135L1.65918 6.05198C1.72716 5.92994 1.79597 5.80831 1.86804 5.68872L2.59436 6.10809Z" fill="white"/>
<path d="M3.7135 3.37927L4.30692 3.97229C4.20617 4.06873 4.10727 4.16764 4.01041 4.26879L3.41699 3.67578C3.51426 3.57462 3.61296 3.47613 3.7135 3.37927Z" fill="white"/>
<path d="M6.5096 2.34766C6.38715 2.41503 6.26552 2.48383 6.14655 2.55652L5.72656 1.83C5.84615 1.75792 5.96778 1.68912 6.08982 1.62134L6.5096 2.34766Z" fill="white"/>
<path d="M9.0598 1.35207C8.92383 1.38565 8.78888 1.42251 8.65517 1.461L8.4375 0.650729C8.57121 0.612232 8.70575 0.574964 8.84172 0.541382L9.0598 1.35207Z" fill="white"/>
<path d="M13.0005 1.88672C6.8625 1.88672 1.88721 6.86242 1.88721 13C1.88721 19.1384 6.8625 24.1132 13.0005 24.1132C19.1378 24.1132 24.1137 19.1384 24.1137 13C24.1137 6.86242 19.1378 1.88672 13.0005 1.88672ZM13.0005 19.9196C9.1809 19.9196 6.08089 16.8208 6.08089 13C6.08089 9.17918 9.1809 6.0804 13.0005 6.0804C16.8196 6.0804 19.92 9.17918 19.92 13C19.92 16.8208 16.8196 19.9196 13.0005 19.9196Z" fill="#E6E9ED"/>
<path d="M13.0001 0C12.4218 0 11.9517 0.470151 11.9517 1.04842V2.35567H14.0485V1.04842C14.0485 0.470151 13.5784 0 13.0001 0Z" fill="#656D78"/>
<path d="M11.9517 23.6444V24.9517C11.9517 25.5299 12.4218 26.0001 13.0001 26.0001C13.5784 26.0001 14.0485 25.5299 14.0485 24.9517V23.6444H11.9517Z" fill="#656D78"/>
<path d="M24.9518 11.9517H23.6445V14.0485H24.9518C25.5301 14.0485 26.0002 13.5784 26.0002 13.0001C26.0002 12.4218 25.5301 11.9517 24.9518 11.9517Z" fill="#656D78"/>
<path d="M1.04842 14.0485H2.35567V11.9517H1.04842C0.470151 11.9517 0 12.4218 0 13.0001C0 13.5784 0.470151 14.0485 1.04842 14.0485Z" fill="#656D78"/>
<path d="M8.58691 2.34546L10.5126 6.99373C12.05 6.35813 13.8294 6.30734 15.4872 6.99373L17.4133 2.34464C14.471 1.12606 11.3136 1.21575 8.58691 2.34546Z" fill="#DB1127"/>
<path d="M17.4133 23.6519L15.4877 19.0037C13.9502 19.6395 12.1708 19.6903 10.513 19.0037L8.58691 23.6528C11.5293 24.872 14.6866 24.7816 17.4133 23.6519Z" fill="#DA4453"/>
<path d="M2.34678 17.4122L6.99546 15.4865C6.35965 13.9491 6.30887 12.1692 6.99546 10.5114L2.34637 8.58618C1.12717 11.5279 1.21686 14.6859 2.34678 17.4122Z" fill="#DB1127"/>
<path d="M23.6536 8.58533L19.0049 10.511C19.6407 12.0484 19.6915 13.8283 19.0049 15.4859L23.654 17.4117C24.8732 14.4694 24.7835 11.312 23.6536 8.58533Z" fill="#DB1127"/>
<path d="M10.1929 6.22216L10.5127 6.99373C10.6403 6.94131 10.7711 6.89872 10.902 6.85469C10.9628 6.83401 11.0214 6.80882 11.0836 6.78999C11.2538 6.73675 11.427 6.69477 11.6015 6.65586C11.6334 6.6491 11.6635 6.63866 11.6959 6.6319C12.1228 6.54426 12.5598 6.50065 13.0001 6.50024H13.0009C13.0033 6.50024 13.006 6.50106 13.0085 6.50106C13.221 6.50106 13.4346 6.5115 13.6475 6.533C13.7 6.53873 13.7507 6.54856 13.8032 6.55511C13.9617 6.57498 14.1201 6.59627 14.2782 6.62822C14.3706 6.64706 14.4595 6.67224 14.5496 6.69518C14.6659 6.72384 14.7828 6.74944 14.8985 6.78466C15.0134 6.81988 15.125 6.86391 15.2374 6.90568C15.3209 6.93599 15.4047 6.96076 15.4878 6.99435L15.8077 6.22175C14.9425 5.86238 13.9952 5.6615 13.0013 5.6615C12.0061 5.66109 11.0584 5.86238 10.1929 6.22216Z" fill="#C40318"/>
<path d="M6.77925 14.8788C6.68916 14.5806 6.62527 14.2721 6.57838 13.9575C6.56404 13.8615 6.54438 13.7675 6.53476 13.6706C6.53066 13.6311 6.53107 13.5914 6.52759 13.5519C6.51244 13.3725 6.50118 13.1937 6.50077 13.0139C6.50077 13.0088 6.49995 13.0051 6.49995 13C6.49995 12.9544 6.5063 12.9091 6.50712 12.8632C6.51039 12.6972 6.51592 12.5307 6.53271 12.3646C6.54111 12.2786 6.55708 12.1953 6.56875 12.1109C6.58595 11.984 6.60151 11.8576 6.6265 11.7319C6.65045 11.6139 6.68281 11.4991 6.71209 11.3838C6.73605 11.2929 6.7553 11.2009 6.78294 11.1096C6.82533 10.972 6.87693 10.8377 6.92771 10.7039C6.95208 10.6403 6.96969 10.5751 6.9957 10.5123L6.22269 10.192C5.86291 11.0584 5.66162 12.0061 5.66162 13.0004C5.66162 13.9948 5.8625 14.9425 6.22187 15.8072L6.9957 15.487C6.97297 15.4327 6.95699 15.3762 6.93611 15.3213C6.88287 15.182 6.82922 15.0436 6.78519 14.9001C6.78253 14.8931 6.7813 14.8855 6.77925 14.8788Z" fill="#C40318"/>
<path d="M15.8084 19.7778L15.4878 19.0036C15.4755 19.0087 15.4626 19.012 15.4507 19.0167C14.7844 19.2892 14.0628 19.4481 13.3086 19.4842C13.2157 19.4893 13.1233 19.4981 13.0297 19.4981C13.0197 19.4981 13.0101 19.4997 13.0004 19.4997C12.8981 19.4997 12.7983 19.4893 12.6968 19.4842C12.5919 19.4793 12.4871 19.4782 12.3822 19.4686C12.2414 19.4557 12.1042 19.4318 11.9664 19.4096C11.8941 19.3982 11.822 19.3906 11.7503 19.3769C11.5763 19.3425 11.4061 19.298 11.2366 19.2497C11.2005 19.2401 11.1641 19.2325 11.1276 19.2221C10.9228 19.1608 10.7224 19.0896 10.5262 19.0083C10.5215 19.0065 10.5174 19.0048 10.5127 19.0032L10.1914 19.7774C11.0572 20.1376 12.0053 20.3385 12.9996 20.3385C13.9952 20.3389 14.9429 20.138 15.8084 19.7778Z" fill="#C40318"/>
<path d="M19.7778 10.1906L19.0048 10.511C19.0376 10.5903 19.0619 10.6726 19.0912 10.7518C19.1336 10.8655 19.1784 10.9777 19.2141 11.0948C19.2255 11.1325 19.2329 11.172 19.2436 11.2093C19.3206 11.4773 19.3781 11.7531 19.4205 12.0341C19.4352 12.1316 19.4549 12.2284 19.4649 12.3273C19.4709 12.3822 19.4705 12.4381 19.4741 12.4934C19.487 12.6548 19.4985 12.8175 19.4993 12.9807C19.4993 12.9875 19.5001 12.9936 19.5001 12.9996C19.5001 13.0657 19.4922 13.1308 19.4905 13.1962C19.4858 13.3397 19.4825 13.483 19.4682 13.627C19.4578 13.7402 19.4377 13.8504 19.4209 13.9628C19.4062 14.0609 19.3953 14.1588 19.3761 14.2569C19.3462 14.4098 19.3056 14.5601 19.2649 14.709C19.2493 14.7647 19.2384 14.8212 19.2212 14.8767C19.1647 15.0641 19.098 15.2477 19.0251 15.4273C19.0171 15.447 19.0124 15.4666 19.0044 15.4855L19.7786 15.806C20.138 14.9408 20.3389 13.9944 20.3389 13C20.3389 12.0056 20.138 11.0571 19.7778 10.1906Z" fill="#C50318"/>
<path d="M17.0928 22.8783C15.8315 23.4033 14.4493 23.6939 13.0003 23.6939C11.5514 23.6939 10.1692 23.4033 8.90779 22.8783L8.58691 23.6531C8.95304 23.8047 9.32204 23.9359 9.69369 24.0469C9.7025 24.0504 9.71069 24.052 9.7195 24.0545C9.8915 24.1061 10.0635 24.1526 10.2363 24.1954C10.272 24.2042 10.3084 24.2126 10.344 24.221C10.4892 24.2554 10.6338 24.2873 10.779 24.3162C10.8451 24.3293 10.9123 24.341 10.9799 24.3522C11.0943 24.3729 11.2096 24.3934 11.3245 24.4106C11.4236 24.4245 11.5233 24.437 11.623 24.4483C11.7078 24.4589 11.7926 24.4698 11.8772 24.4778C12.006 24.4907 12.1352 24.499 12.2648 24.507C12.324 24.5113 12.3829 24.5158 12.4421 24.5191C12.5922 24.5267 12.7441 24.5289 12.8959 24.5306C12.9379 24.5306 12.979 24.533 13.0208 24.5322C13.1705 24.5322 13.3196 24.5271 13.468 24.5218C13.5153 24.5191 13.564 24.5191 13.6113 24.5167C13.7186 24.5107 13.8247 24.5011 13.9314 24.4919C15.1336 24.3938 16.3096 24.1104 17.4137 23.6523L17.0928 22.8783Z" fill="#F33A4E"/>
<path d="M3.12121 17.0912C2.597 15.8299 2.30643 14.4489 2.30643 12.9999C2.30643 11.551 2.59741 10.1692 3.12203 8.90681L2.34718 8.58655C2.3265 8.63549 2.30807 8.68545 2.28841 8.73501C2.23927 8.85869 2.19033 8.98155 2.14548 9.10605C2.1248 9.16359 2.10637 9.22133 2.08671 9.27887C2.04433 9.40256 2.00276 9.52706 1.96467 9.65094C1.94235 9.72384 1.92269 9.79674 1.90263 9.86943C1.87232 9.97755 1.8414 10.0848 1.81417 10.1928C1.7898 10.29 1.76871 10.3877 1.74659 10.485C1.72775 10.5693 1.7085 10.6527 1.69171 10.7366C1.66612 10.8628 1.64421 10.9903 1.62332 11.1191C1.61451 11.174 1.60407 11.2281 1.59568 11.283C1.57172 11.4429 1.55206 11.6042 1.53445 11.7654C1.53179 11.79 1.52851 11.8135 1.52605 11.8383C1.48735 12.22 1.46729 12.6082 1.46729 12.9999C1.46729 13.5569 1.50926 14.1041 1.58605 14.6406C1.72304 15.5874 1.97552 16.5122 2.33797 17.3912C2.34083 17.3986 2.34329 17.405 2.34636 17.4125L3.12121 17.0912Z" fill="#F33A4E"/>
<path d="M8.90828 3.12162C10.1697 2.59741 11.5514 2.30602 13.0004 2.30602C14.4489 2.30602 15.8303 2.59659 17.0913 3.1208L17.4126 2.34677C17.3434 2.3181 17.2733 2.29128 17.2041 2.26404C17.1056 2.22555 17.0071 2.18603 16.908 2.1504C16.8259 2.12111 16.7419 2.09388 16.6582 2.06603C16.5609 2.03347 16.463 1.99989 16.3654 1.96959C16.2665 1.93948 16.1653 1.91225 16.0656 1.88461C15.9859 1.86229 15.9059 1.83976 15.8256 1.81908C15.6986 1.78734 15.5707 1.75826 15.4419 1.73062C15.3901 1.71895 15.338 1.70625 15.2856 1.69581C15.1245 1.66304 14.9623 1.63458 14.7991 1.60899C14.7798 1.60571 14.7604 1.60141 14.7411 1.59936C14.1733 1.51213 13.5922 1.46729 13.0004 1.46729C12.2077 1.46729 11.4337 1.54817 10.6851 1.70175C10.6275 1.71301 10.5714 1.72816 10.5143 1.74024C10.3914 1.76707 10.269 1.7943 10.148 1.82543C10.0368 1.85389 9.92598 1.88665 9.8152 1.9186C9.74783 1.93826 9.67903 1.95546 9.61187 1.97675C9.50498 2.00952 9.39972 2.04637 9.29406 2.08241C9.22198 2.10719 9.14888 2.12992 9.07721 2.15552C8.99244 2.18644 8.9091 2.22002 8.82473 2.25278C8.74548 2.2837 8.66583 2.31401 8.5874 2.34718L8.90828 3.12162Z" fill="#F33A4E"/>
<path d="M24.417 11.3774C24.2845 10.4518 24.0408 9.5486 23.6927 8.6859C23.6792 8.65314 23.6667 8.61874 23.6528 8.58618L22.8779 8.90747C23.403 10.1688 23.6939 11.5515 23.6939 13.0004C23.6939 14.4494 23.4034 15.8303 22.8792 17.0909L23.654 17.4122C23.654 17.4122 23.6544 17.4113 23.6544 17.4105C23.73 17.2293 23.8 17.0469 23.8655 16.8632C23.8684 16.8548 23.8713 16.846 23.8743 16.8368C23.9356 16.6648 23.9917 16.4921 24.0441 16.3193C24.0529 16.29 24.0609 16.2593 24.0697 16.23C24.1137 16.0803 24.1553 15.9292 24.193 15.7795C24.2073 15.7195 24.2202 15.66 24.2345 15.6002C24.2622 15.4798 24.2898 15.3593 24.3134 15.2389C24.3318 15.1456 24.3478 15.0516 24.3637 14.9572C24.3787 14.8704 24.3942 14.7827 24.4074 14.6951C24.4266 14.5646 24.4426 14.4338 24.4575 14.3017C24.4635 14.2493 24.4706 14.1969 24.476 14.1436C24.4923 13.978 24.5046 13.8111 24.5142 13.6434C24.5155 13.6227 24.5171 13.6014 24.5183 13.5811C24.5276 13.3886 24.5331 13.1953 24.5331 13.0004C24.5331 12.4498 24.4915 11.908 24.417 11.3774Z" fill="#F33A4E"/>
</g>
<defs>
<clipPath id="clip0">
<rect width="26" height="26" fill="white"/>
</clipPath>
</defs>
</svg>
