<svg width="48" height="58" viewBox="0 0 48 58" fill="none" xmlns="http://www.w3.org/2000/svg">
<g clip-path="url(#clip0)">
<path d="M15.5625 40.9579C18.3813 40.9579 20.6747 38.6645 20.6747 35.8457C20.6747 33.0268 18.3813 30.7334 15.5625 30.7334C12.7436 30.7334 10.4502 33.0268 10.4502 35.8457C10.4502 38.6645 12.7436 40.9579 15.5625 40.9579Z" fill="#DB1127"/>
<path d="M10.4502 10.2842H37.7157V13.6924H10.4502V10.2842Z" fill="#DB1127"/>
<path d="M13.8584 44.1934V46.7207L14.8001 46.2498C15.2798 46.0102 15.8452 46.0102 16.3249 46.2498L17.2666 46.7207V44.1934C16.7159 44.3061 16.1461 44.366 15.5625 44.366C14.9789 44.366 14.4091 44.3061 13.8584 44.1934Z" fill="#DB1127"/>
<path d="M46.9419 44.3662H34.3076V57.0005L46.9419 44.3662Z" fill="#DB1127"/>
<path d="M0.22583 1.5371V56.2952C0.22583 57.2369 0.988234 57.9993 1.92992 57.9993H30.8995V42.6625C30.8995 41.7208 31.6619 40.9584 32.6036 40.9584H47.9404V1.5371C47.9404 0.595411 47.178 -0.166992 46.2363 -0.166992H1.92992C0.988234 -0.166992 0.22583 0.595411 0.22583 1.5371ZM39.4199 37.5502H29.1954C28.2537 37.5502 27.4913 36.7878 27.4913 35.8461C27.4913 34.9045 28.2537 34.1421 29.1954 34.1421H39.4199C40.3616 34.1421 41.124 34.9045 41.124 35.8461C41.124 36.7878 40.3616 37.5502 39.4199 37.5502ZM39.4199 30.7339H29.1954C28.2537 30.7339 27.4913 29.9715 27.4913 29.0298C27.4913 28.0881 28.2537 27.3257 29.1954 27.3257H39.4199C40.3616 27.3257 41.124 28.0881 41.124 29.0298C41.124 29.9715 40.3616 30.7339 39.4199 30.7339ZM7.0422 8.58068C7.0422 7.63899 7.8046 6.87659 8.74629 6.87659H39.4199C40.3616 6.87659 41.124 7.63899 41.124 8.58068V15.397C41.124 16.3387 40.3616 17.1011 39.4199 17.1011H8.74629C7.8046 17.1011 7.0422 16.3387 7.0422 15.397V8.58068ZM8.74629 20.5093H39.4199C40.3616 20.5093 41.124 21.2717 41.124 22.2134C41.124 23.1551 40.3616 23.9175 39.4199 23.9175H8.74629C7.8046 23.9175 7.0422 23.1551 7.0422 22.2134C7.0422 21.2717 7.8046 20.5093 8.74629 20.5093ZM15.5627 27.3257C20.2604 27.3257 24.0831 31.1484 24.0831 35.8461C24.0831 38.6184 22.7318 41.0618 20.6749 42.619V49.4789C20.6749 50.0695 20.3687 50.6172 19.8664 50.9282C19.3742 51.234 18.7476 51.2708 18.2084 51.0032L15.5627 49.6804L12.9169 51.0032C12.3839 51.266 11.7586 51.238 11.2589 50.9282C10.7566 50.6172 10.4504 50.0695 10.4504 49.4789V42.619C8.39349 41.0618 7.0422 38.6184 7.0422 35.8461C7.0422 31.1484 10.8649 27.3257 15.5627 27.3257Z" fill="#DB1127"/>
</g>
<defs>
<clipPath id="clip0">
<rect width="48" height="58" fill="white"/>
</clipPath>
</defs>
</svg>
