<svg width="59" height="59" viewBox="0 0 59 59" fill="none" xmlns="http://www.w3.org/2000/svg">
<g clip-path="url(#clip0)">
<path d="M36.877 30.9995L38.0882 34.0253H32.0533C34.259 30.0683 35.4306 25.6194 35.4605 21.0894L39.6224 19.8407V21.1863C39.6224 21.4084 39.6153 21.6295 39.6107 21.8517C37.7544 22.511 36.5124 24.2653 36.5063 26.2351V29.0697C36.5058 29.7305 36.6316 30.3858 36.877 30.9995ZM21.9647 38.18C21.9657 39.241 22.375 40.2609 23.1074 41.0293C22.7219 41.3097 22.3441 41.6004 21.946 41.86L19.8873 43.1772L17.8328 41.857C13.2272 38.9042 9.72518 34.5137 7.87097 29.3669L33.3603 21.7198C33.2183 26.0779 31.9321 30.3214 29.6311 34.0253H26.1195C23.825 34.0253 21.9647 35.8856 21.9647 38.18ZM0.716317 27.5198C0.708202 27.4681 0.698566 27.4158 0.690451 27.3661L4.81831 26.1312C4.94054 26.7545 5.08914 27.3778 5.25549 27.9864L1.06829 29.2432C0.931357 28.6467 0.818258 28.0787 0.716317 27.5198ZM0.237548 23.3473L4.34563 22.1144C4.37454 22.7661 4.42221 23.4127 4.49727 24.0548L0.398321 25.2847C0.388178 25.1914 0.380063 25.0986 0.369413 25.0052C0.316667 24.4692 0.268486 23.926 0.237548 23.3473ZM33.3902 11.2325L6.38445 19.3341V11.9066L19.9229 7.0712L33.3902 10.9186V11.2325ZM33.3902 13.4012V15.3873L6.52595 23.4462C6.46053 22.8011 6.41995 22.1514 6.40322 21.4977L33.3902 13.4012ZM39.6224 15.686V17.6721L35.4676 18.9187V16.9326L39.6224 15.686ZM39.6224 13.5173L35.4676 14.764V12.7779L39.6224 11.5313V13.5173ZM6.81656 25.5276L23.718 20.458L33.3902 17.5559V19.542L7.24461 27.3859C7.08029 26.7732 6.93372 26.155 6.81656 25.5276ZM0.152344 6.75371L19.8873 0.833008L39.6224 6.75371V9.3626L35.4676 10.6092V10.1355C35.4676 9.67197 35.1603 9.26471 34.7145 9.13741L20.1729 4.98267C19.9644 4.92181 19.7423 4.92891 19.5384 5.00245L4.99683 10.1959C4.58298 10.3435 4.30708 10.735 4.30708 11.1742V19.9574L0.152344 21.2035L0.152344 6.75371ZM19.8873 53.6335C10.9409 49.0375 4.301 40.937 1.55061 31.2622L5.8788 29.9638C7.87553 35.5863 11.6859 40.3847 16.7089 43.6042L19.3254 45.2855C19.6677 45.5056 20.107 45.5056 20.4493 45.2855L23.0658 43.6042L23.0927 43.5864C22.727 45.3098 23.5014 47.0742 25.0174 47.9714C24.387 48.7195 24.0416 49.6659 24.0421 50.6442C24.0441 50.7888 24.0538 50.9328 24.071 51.0763C22.7351 52.0212 21.3373 52.8758 19.8873 53.6335ZM46.5817 58.9537H29.2355C28.0883 58.9537 27.1581 58.0235 27.1581 56.8763C27.1561 55.7976 27.9874 54.9009 29.0631 54.8208C29.6215 54.7629 30.0379 54.2801 30.0135 53.7197C29.9917 53.1618 29.5332 52.7211 28.9748 52.7216H28.1968C27.0496 52.7216 26.1195 51.7914 26.1195 50.6442C26.1195 49.497 27.0496 48.5668 28.1968 48.5668C28.7704 48.5668 29.2355 48.1018 29.2355 47.5282C29.2355 46.9546 28.7704 46.4895 28.1968 46.4895H27.1581C26.0109 46.4895 25.0808 45.5593 25.0808 44.4121C25.0808 43.2649 26.0109 42.3347 27.1581 42.3347C27.7318 42.3347 28.1968 41.8697 28.1968 41.2961C28.1968 40.7224 27.7318 40.2574 27.1581 40.2574H26.1195C24.9722 40.2574 24.0421 39.3272 24.0421 38.18C24.0421 37.0328 24.9722 36.1026 26.1195 36.1026H39.6224C39.9672 36.1026 40.2898 35.9317 40.483 35.6462C40.6768 35.3606 40.7158 34.9975 40.5875 34.6775L38.8068 30.2276C38.6587 29.8599 38.5832 29.4663 38.5837 29.0697V26.2351C38.5837 24.8009 39.7461 23.6384 41.1804 23.6384C42.6147 23.6384 43.7771 24.8009 43.7771 26.2351V29.8705C43.7771 30.0029 43.8019 30.1337 43.8506 30.257L45.928 35.4504C46.0426 35.7334 46.2754 35.9525 46.565 36.0494L52.0866 37.8899V55.2818L46.5817 58.9537ZM58.3187 54.799H54.1639V38.18H58.3187V54.799Z" fill="#DB1127"/>
<path d="M52.7306 12.0459L51.3105 13.5623C51.7848 14.0061 52.2306 14.4793 52.6454 14.9794L54.243 13.6506C53.7729 13.0851 53.2677 12.549 52.7306 12.0459Z" fill="#DB1127"/>
<path d="M58.319 24.9357C58.319 24.5284 58.3053 24.1252 58.2774 23.7256L56.2051 23.8656C56.2289 24.2191 56.2411 24.5756 56.2416 24.9357C56.2416 25.2293 56.2335 25.5225 56.2167 25.8121L58.2941 25.9318C58.3108 25.6016 58.319 25.2694 58.319 24.9357Z" fill="#DB1127"/>
<path d="M51.032 10.6427C50.4366 10.2101 49.8148 9.81451 49.1696 9.45898L48.1675 11.2777C48.736 11.5891 49.2843 11.936 49.8097 12.3164L51.032 10.6427Z" fill="#DB1127"/>
<path d="M58.032 28.1198L55.9876 27.748C55.872 28.3861 55.7158 29.0165 55.5205 29.6352L57.5 30.2585C57.7221 29.5576 57.8996 28.843 58.032 28.1198Z" fill="#DB1127"/>
<path d="M47.1737 8.51714C46.489 8.2453 45.7881 8.01707 45.0745 7.83398L44.5552 9.84542C45.1841 10.0077 45.8023 10.2091 46.4058 10.4479L47.1737 8.51714Z" fill="#DB1127"/>
<path d="M54.2939 32.4828L56.1116 33.49C56.3196 33.1091 56.527 32.7186 56.7045 32.3185L54.8184 31.4502C54.6591 31.8012 54.4841 32.1455 54.2939 32.4828Z" fill="#DB1127"/>
<path d="M53.7954 16.55C54.1443 17.0967 54.4593 17.6642 54.7387 18.2495L56.6143 17.3584C56.2983 16.694 55.9412 16.0499 55.5446 15.4307L53.7954 16.55Z" fill="#DB1127"/>
<path d="M55.4624 20.0535C55.6648 20.6697 55.8286 21.2981 55.9528 21.9346L57.9917 21.539C57.8512 20.8163 57.6655 20.1027 57.4348 19.4033L55.4624 20.0535Z" fill="#DB1127"/>
<path d="M44.801 18.5188C47.3251 19.5184 48.979 21.962 48.9704 24.6763H51.0478C51.0599 21.1114 48.8872 17.9026 45.5729 16.59L45.2021 16.4414L44.4292 18.3692L44.801 18.5188Z" fill="#DB1127"/>
</g>
<defs>
<clipPath id="clip0">
<rect x="0.152344" y="0.833008" width="58.1663" height="58.1663" fill="white"/>
</clipPath>
</defs>
</svg>
