<svg width="145" height="52" viewBox="0 0 145 52" fill="none" xmlns="http://www.w3.org/2000/svg">
<path d="M68.8647 26.7802H63.077V24.4546H68.9099C68.4577 21.9895 66.6039 20.7337 64.3882 20.7337C63.1222 20.7337 61.9466 21.2453 61.1327 22.129L59.5049 20.4546C60.7709 19.1523 62.4439 18.3616 64.3882 18.3616C68.1864 18.3616 71.3064 21.2453 71.3064 25.6639C71.3064 29.8499 68.1864 32.9662 64.3882 32.9662C62.4892 32.9662 60.7709 32.1755 59.5049 30.8732L61.1327 29.1988C61.9466 30.036 63.1222 30.5941 64.3882 30.5941C66.6039 30.5941 68.4125 28.9197 68.8647 26.7802Z" fill="white"/>
<path d="M84.1932 18.5476V32.7802H81.842V26.8267H76.0995V32.7802H73.7935V18.5476H76.0995V24.4546H81.842V18.5476H84.1932Z" fill="white"/>
<path d="M89.619 20.9197V24.4546H95.3615V26.8267H89.619V30.3616H96.5371V32.7802H87.313V18.5476H96.5371V20.9197H89.619Z" fill="white"/>
<path d="M108.158 22.7337C108.158 26.9197 103.546 26.9197 103.546 26.9197H101.24V32.8267H98.9336V18.5476H103.546C103.546 18.5476 108.158 18.5476 108.158 22.7337ZM105.852 22.7337C105.852 20.9662 103.546 20.9662 103.546 20.9662H101.24V24.5476H103.546C103.546 24.5011 105.852 24.5011 105.852 22.7337Z" fill="white"/>
<path d="M112.679 32.7802H110.373V18.5476H118.964V20.8267H112.679V32.7802Z" fill="white"/>
<path d="M121.271 18.5476H123.577V28.8732L130.449 18.5476H132.801V32.7802H130.449V22.2685L123.622 32.7802H121.271V18.5476Z" fill="white"/>
<path d="M137.684 32.7802H135.152L137.955 26.5011C136.689 26.036 135.288 25.0127 135.288 22.7337C135.288 18.5941 139.9 18.5941 139.9 18.5941H144.512V32.7802H142.206V26.8267H140.352L137.684 32.7802ZM142.206 20.8732H139.9C139.9 20.8732 137.594 20.9197 137.594 22.6871C137.594 24.4546 139.9 24.5476 139.9 24.5476H142.206V20.8732Z" fill="white"/>
<path d="M41.6895 0H8.8624C3.97904 0 0 4.09302 0 9.11628V42.8837C0 47.907 3.97904 52 8.8624 52H41.6895C46.5728 52 50.5519 47.907 50.5519 42.8837V9.11628C50.5519 4.09302 46.5728 0 41.6895 0ZM31.8775 9.34884L33.867 14.7442C33.7766 14.8372 33.6862 14.8837 33.6409 14.9767L24.0099 11.7674C24.0099 11.4884 23.9194 11.2093 23.7838 11.0233L27.2202 6.55814L31.8775 9.34884ZM33.4601 16.4186L23.7386 24.4651C23.5125 24.2791 23.2864 24.186 23.0151 24.093V13.2558C23.2864 13.1628 23.5125 12.9767 23.6934 12.7442L33.3244 15.9535C33.3697 16.093 33.4149 16.2326 33.4601 16.4186ZM25.2759 5.44186L26.4063 6.13953L23.0603 10.4651C22.9247 10.4186 22.7438 10.3721 22.563 10.3721C22.1108 10.3721 21.7038 10.6047 21.4778 10.9302L18.2222 9.67442L25.2759 5.44186ZM17.1822 10.2326L21.1612 11.7674V11.814C21.1612 12.4651 21.5682 13.0233 22.1108 13.2093V24.093C22.0204 24.1395 21.8847 24.1395 21.7943 24.186L13.2484 12.5581L17.1822 10.2326ZM7.95807 15.7209L12.4345 13.0698L21.0708 24.8372C20.7995 25.1628 20.6186 25.6279 20.6186 26.093C20.6186 26.186 20.6186 26.2791 20.6639 26.3721L8.00329 31.5814V15.7209H7.95807ZM7.95807 36.2791V32.5581L20.9804 27.2093C21.3421 27.7209 21.9299 28.0465 22.563 28.0465C22.6082 28.0465 22.6082 28.0465 22.6534 28.0465L25.8185 38.7907C25.5472 39.0233 25.3664 39.3953 25.3664 39.7674C25.3664 39.907 25.4116 40.0465 25.4116 40.1395L20.9804 43.9535L7.95807 36.2791ZM25.2759 46.5581L21.8847 44.5581L26.0446 40.9767C26.1803 41.0698 26.3159 41.1163 26.4968 41.1163L27.6724 45.1628L25.2759 46.5581ZM33.4149 41.7209L28.5315 44.6512L27.4011 40.7907C27.6724 40.5581 27.8533 40.2326 27.8533 39.8139C27.8533 39.1628 27.3559 38.6046 26.7229 38.5581L23.5577 27.814C23.6029 27.7674 23.6481 27.7674 23.7386 27.7209L33.6409 36.2326C33.5957 36.3721 33.5505 36.5116 33.5505 36.6977C33.5505 37.1163 33.7766 37.5349 34.0931 37.7674L33.4149 41.7209ZM34.4548 41.0698L35.0427 37.8605C35.1783 37.814 35.314 37.7674 35.4496 37.7209L37.3487 39.3488L34.4548 41.0698ZM42.5938 36.2791L38.253 38.8837L36.0374 36.9767C36.0826 36.8837 36.0826 36.7907 36.0826 36.6512C36.0826 35.9535 35.54 35.3953 34.8618 35.3953C34.6809 35.3953 34.5001 35.4419 34.3644 35.4884L24.4168 26.9302C24.5525 26.6512 24.5977 26.3721 24.5977 26.0465C24.5977 25.7209 24.5073 25.4419 24.4168 25.2093L34.1383 17.1163C34.3644 17.2558 34.6357 17.3488 34.907 17.3488C35.2687 17.3488 35.5853 17.2093 35.8566 16.9767L42.5938 20.9302V36.2791ZM42.5938 19.814L36.2183 16.1395C36.2183 16.0465 36.2635 15.9535 36.2635 15.8605C36.2635 15.0233 35.6305 14.3721 34.8166 14.3721H34.7714L33.1888 10.093L42.5938 15.6744V19.814Z" fill="white"/>
</svg>
