<svg width="20" height="20" viewBox="0 0 20 20" fill="none" xmlns="http://www.w3.org/2000/svg">
<g clip-path="url(#clip0)">
<path d="M19.484 14.7571L16.9984 12.2709C16.3352 11.6077 15.1764 11.6066 14.5121 12.2709L14.0977 12.6854L19.0697 17.6572L19.484 17.2428C20.1723 16.5546 20.17 15.4419 19.484 14.7571Z" fill="white"/>
<path d="M13.2467 13.491C12.7236 13.8962 11.9775 13.88 11.4995 13.401L6.58482 8.48291C6.1058 8.00389 6.08967 7.25718 6.49486 6.73542L1.53429 1.77512C-0.599733 4.26261 -0.516296 8.01077 1.83897 10.366L9.61642 18.1469C11.8766 20.407 15.5787 20.7067 18.2075 18.4515L13.2467 13.491Z" fill="white"/>
<path d="M7.71497 2.984L5.22931 0.497796C4.56611 -0.165406 3.4074 -0.166539 2.7431 0.497796L2.32861 0.912287L7.30063 5.88404L7.71497 5.46966C8.40317 4.78146 8.40091 3.6688 7.71497 2.984Z" fill="white"/>
</g>
<defs>
<clipPath id="clip0">
<rect width="20" height="20" fill="white"/>
</clipPath>
</defs>
</svg>
