<svg width="69" height="69" viewBox="0 0 69 69" fill="none" xmlns="http://www.w3.org/2000/svg">
<g clip-path="url(#clip0)">
<rect x="6" y="19" width="14" height="21" fill="#FFC369"/>
<path d="M42.5448 36.791C41.9092 36.791 41.3956 37.3047 41.3956 37.9402C41.3956 41.1569 40.3406 42.5302 39.4085 43.7428C38.8914 44.4164 38.3651 45.1104 38.1087 46H37.8513C37.7651 44.437 37.9835 43.3716 38.1846 42.4213C38.4891 40.9789 38.7765 39.6182 37.8524 37.4829C37.6008 36.9014 36.9238 36.6324 36.3423 36.8852C35.7597 37.1369 35.4906 37.8138 35.7435 38.3964C36.3756 39.8594 36.2102 40.6444 35.9355 41.9464C35.7194 42.9705 35.4665 44.2093 35.5517 45.9999H35.1012C34.414 44.9449 34.4484 44.0634 34.4978 42.8957C34.5598 41.4373 34.638 39.6215 33.1693 37.3218C32.8279 36.7874 32.1177 36.63 31.5822 36.9713C31.0478 37.3127 30.8903 38.0229 31.2328 38.5584C32.3107 40.2466 32.2602 41.4293 32.2016 42.7968C32.143 44.1725 32.0936 45.7216 33.3508 47.4949V55.2087C33.3508 59.0116 30.257 62.1043 26.4552 62.1043H23.0075C19.2046 62.1043 16.112 59.0116 16.112 55.1938V52.8654C17.3796 52.8654 18.4105 51.8346 18.4105 50.5669V45.9699H23.0075C24.2752 45.9699 25.3061 44.939 25.3061 43.6714V16.0895C25.3061 14.8219 24.2752 13.791 23.0075 13.791H21.8583V3.44771C21.8583 1.54682 20.3114 0 18.4106 0H6.91789C5.01589 0 3.47017 1.54695 3.47017 3.44771V13.791H2.32098C1.05226 13.791 0.0224609 14.8219 0.0224609 16.0895V43.6716C0.0224609 44.9393 1.05226 45.9702 2.32098 45.9702H6.91802V50.5672C6.91802 51.8348 7.94782 52.8657 9.21655 52.8657V55.209C9.21655 62.8136 15.403 69 23.0075 69H26.4552C34.0587 69 40.2462 62.8136 40.2462 55.209V47.1493C40.2462 47.147 40.2439 47.1447 40.2439 47.1425C40.2439 47.1391 40.2462 47.1367 40.2462 47.1344C40.2462 46.4587 40.5842 45.9863 41.2324 45.1427C42.2713 43.7901 43.6941 41.9375 43.6941 37.9403C43.6941 37.3047 43.1791 36.791 42.5448 36.791ZM5.7687 13.791V3.44771C5.7687 2.81335 6.28352 2.29852 6.91789 2.29852H18.4104C19.0436 2.29852 19.5595 2.81335 19.5595 3.44771V13.791H5.7687ZM8.40281 37.5886C7.95467 37.1392 7.95467 36.4128 8.40281 35.9636L13.3365 31.0298H9.21641C9.06579 31.0298 8.91764 30.9988 8.7762 30.9414C8.49578 30.8253 8.27164 30.6013 8.15567 30.3196C8.03956 30.0392 8.03956 29.7219 8.15567 29.4415C8.21318 29.3002 8.29821 29.1737 8.40391 29.0669L15.2982 22.1726C15.7476 21.7232 16.4751 21.7232 16.9245 22.1726C17.3726 22.622 17.3726 23.3482 16.9245 23.7976L11.9907 28.7313H16.112C16.2614 28.7313 16.4096 28.7612 16.5499 28.8198C16.8314 28.9359 17.0555 29.1599 17.1716 29.4415C17.2877 29.7219 17.2877 30.0392 17.1716 30.3196C17.1141 30.4609 17.0291 30.5874 16.9234 30.6942L10.029 37.5886C9.80381 37.8127 9.50956 37.9253 9.21655 37.9253C8.9223 37.9254 8.62805 37.8127 8.40281 37.5886ZM10.3657 50.5671H9.21655V45.97H16.1121L16.1132 50.5671H14.9628H10.3657Z" fill="#DB1127"/>
<path d="M55.1862 0.0302734H48.2906C40.6861 0.0302734 34.4996 6.21671 34.4996 13.8213V22.9992C34.4996 23.6749 34.1617 24.1473 33.5135 24.9909C32.4745 26.3435 31.0518 28.1961 31.0518 32.1933C31.0518 32.8289 31.5666 33.3425 32.201 33.3425C32.8353 33.3425 33.3501 32.8287 33.3501 32.1933C33.3501 28.9766 34.4051 27.6032 35.3361 26.3908C35.8509 25.7208 36.3738 25.0313 36.6312 24.1485H36.8944C36.9783 25.7034 36.761 26.7654 36.5599 27.7134C36.2565 29.1546 35.9692 30.5153 36.8921 32.6506C37.0805 33.0838 37.5034 33.3425 37.947 33.3425C38.0999 33.3425 38.255 33.3126 38.4033 33.2483C38.9859 32.9966 39.2537 32.3197 39.002 31.737C38.3688 30.274 38.5343 29.4891 38.809 28.1871C39.025 27.1653 39.2767 25.9322 39.194 24.1485H39.6537C40.3317 25.1978 40.2972 26.0769 40.2467 27.2389C40.1846 28.6972 40.1076 30.5131 41.5752 32.8116C41.7947 33.1553 42.1659 33.3426 42.5452 33.3426C42.7566 33.3426 42.9716 33.2851 43.1623 33.1621C43.6978 32.8208 43.8542 32.1095 43.5128 31.5751C42.4348 29.8868 42.4854 28.7054 42.544 27.3377C42.6026 25.9621 42.652 24.4129 41.3948 22.6396V13.8214C41.3948 10.0185 44.4874 6.92584 48.2903 6.92584H55.1859C58.9888 6.92584 62.0815 10.0185 62.0815 13.8214V67.8363C62.0815 68.4719 62.5963 68.9855 63.2306 68.9855H67.8277C68.4621 68.9855 68.9769 68.4718 68.9769 67.8363V13.8213C68.9772 6.21658 62.7907 0.0302734 55.1862 0.0302734Z" fill="#DB1127"/>
</g>
<defs>
<clipPath id="clip0">
<rect width="69" height="69" fill="white"/>
</clipPath>
</defs>
</svg>
