<svg width="111" height="82" viewBox="0 0 111 82" fill="none" xmlns="http://www.w3.org/2000/svg">
<g clip-path="url(#clip0)">
<path d="M14.5584 58.5879V59.076C14.5584 59.4739 14.2359 59.7964 13.838 59.7964H10.7516C10.3537 59.7964 10.0312 59.4739 10.0312 59.076V58.5879C6.79526 59.5687 4.52734 62.5671 4.52734 66.0207C4.52734 69.4742 6.79526 72.4726 10.0312 73.4534V72.9653C10.0312 72.5674 10.3537 72.2449 10.7516 72.2449H13.838C14.2359 72.2449 14.5584 72.5674 14.5584 72.9653V73.4534C17.7943 72.4726 20.0622 69.4742 20.0622 66.0207C20.0622 62.5671 17.7943 59.5687 14.5584 58.5879ZM8.43677 68.2843C7.18866 68.2843 6.17317 67.2688 6.17317 66.0207C6.17317 64.7725 7.18866 63.7571 8.43677 63.7571C9.68488 63.7571 10.7004 64.7725 10.7004 66.0207C10.7004 67.2688 9.68488 68.2843 8.43677 68.2843ZM16.1528 68.2843C14.9047 68.2843 13.8892 67.2688 13.8892 66.0207C13.8892 64.7725 14.9047 63.7571 16.1528 63.7571C17.4009 63.7571 18.4166 64.7725 18.4166 66.0207C18.4166 67.2688 17.4009 68.2843 16.1528 68.2843Z" fill="#DB1127"/>
<path d="M16.1529 65.198C15.6993 65.198 15.3301 65.5672 15.3301 66.0208C15.3301 66.4744 15.6993 66.8436 16.1529 66.8436C16.6067 66.8436 16.9759 66.4744 16.9759 66.0208C16.9759 65.5672 16.6067 65.198 16.1529 65.198Z" fill="#DB1127"/>
<path d="M8.43659 65.198C7.98278 65.198 7.61377 65.5672 7.61377 66.0208C7.61377 66.4744 7.98278 66.8436 8.43659 66.8436C8.89021 66.8436 9.25941 66.4744 9.25941 66.0208C9.25941 65.5672 8.89021 65.198 8.43659 65.198Z" fill="#DB1127"/>
<path d="M20.7825 53.7258H3.80681C1.70774 53.7258 0 55.4336 0 57.5326V74.5083C0 76.6074 1.70774 78.3151 3.80681 78.3151H20.7825C22.8816 78.3151 24.5893 76.6074 24.5893 74.5083V57.5326C24.5893 55.4336 22.8816 53.7258 20.7825 53.7258ZM13.9682 75.0766C13.7579 75.1152 13.5413 75.0585 13.3769 74.9216C13.36 74.9075 13.3439 74.8927 13.3285 74.8773C13.194 74.7428 13.1177 74.5599 13.1177 74.368V73.6855H11.4718V74.368C11.4718 74.7948 11.0863 75.1625 10.6211 75.0766C6.25519 74.2733 3.08642 70.4646 3.08642 66.0205C3.08642 61.5764 6.25519 57.7677 10.6211 56.9644C11.0634 56.8826 11.4718 57.2237 11.4718 57.673V58.3555H13.1175V57.673C13.1175 57.2229 13.5266 56.8826 13.9682 56.9644C18.3341 57.7677 21.5029 61.5764 21.5029 66.0205C21.5029 70.4646 18.3341 74.2733 13.9682 75.0766Z" fill="#DB1127"/>
</g>
<path d="M52.4729 44.7201C52.0555 44.6679 51.6319 44.6323 51.2005 44.6323C50.7692 44.6323 50.3455 44.6679 49.9282 44.7201V56.0832H52.4729V44.7201Z" fill="#DB1127"/>
<path d="M38.4775 34.4534H63.924V19.1855H38.4775V34.4534ZM57.5624 26.8195H60.107V31.9088H57.5624V26.8195ZM52.4731 26.8195H55.0177V31.9088H52.4731V26.8195Z" fill="#DB1127"/>
<path d="M55.018 45.3816V57.3554C55.018 58.059 54.448 58.6277 53.7457 58.6277H48.6564C47.9541 58.6277 47.3841 58.059 47.3841 57.3554V45.3816C43.6587 46.8957 41.0225 50.5485 41.0225 54.8108C41.0225 60.423 45.5888 64.9893 51.201 64.9893C56.8132 64.9893 61.3796 60.423 61.3796 54.8108C61.3796 50.5485 58.7434 46.8957 55.018 45.3816Z" fill="#DB1127"/>
<path d="M67.7409 14.0962H34.6605C33.9595 14.0962 33.3882 14.6675 33.3882 15.3685V76.4399C33.3882 77.1423 33.9595 77.7123 34.6605 77.7123H67.7409C68.4419 77.7123 69.0132 77.1423 69.0132 76.4399V15.3685C69.0132 14.6675 68.4419 14.0962 67.7409 14.0962ZM38.4775 75.1676H35.9328V72.623H38.4775V75.1676ZM61.7521 67.1609L59.2468 64.6557C57.0534 66.4522 54.2517 67.5337 51.2007 67.5337C48.1497 67.5337 45.348 66.4522 43.1545 64.6557L40.6493 67.1609L38.8503 65.3618L41.3555 62.8566C39.5589 60.6632 38.4775 57.8615 38.4775 54.8105C38.4775 51.7595 39.5589 48.9578 41.3555 46.7643L38.8503 44.2591L40.6493 42.4601L43.1545 44.9653C45.348 43.1687 48.1497 42.0873 51.2007 42.0873C54.2517 42.0873 57.0534 43.1687 59.2468 44.9653L61.7521 42.4601L63.5511 44.2591L61.0459 46.7643C62.8424 48.9578 63.9239 51.7595 63.9239 54.8105C63.9239 57.8615 62.8424 60.6632 61.0459 62.8566L63.5511 65.3618L61.7521 67.1609ZM66.4685 75.1676H63.9239V72.623H66.4685V75.1676ZM66.4685 35.7257C66.4685 36.428 65.8985 36.998 65.1962 36.998H37.2051C36.5028 36.998 35.9328 36.428 35.9328 35.7257V17.9132C35.9328 17.2108 36.5028 16.6408 37.2051 16.6408H65.1962C65.8985 16.6408 66.4685 17.2108 66.4685 17.9132V35.7257Z" fill="#DB1127"/>
<path d="M98.2767 34.4533V30.6364C98.2767 29.6974 97.7614 28.8857 97.0044 28.4442V23.0024H94.4598V28.4442C93.7027 28.8844 93.1874 29.6961 93.1874 30.6364V34.4533H89.3705V36.998H93.1874V66.2614H94.4598V70.0783C94.4598 71.4817 93.3185 72.623 91.9151 72.623H81.0291C81.4668 71.871 81.7365 71.0097 81.7365 70.0783V66.2614H83.0089V36.998H86.8258V34.4533H83.0089V30.6364C83.0089 29.6974 82.4936 28.8857 81.7365 28.4442V23.0024H79.1919V28.4442C78.4349 28.8844 77.9196 29.6961 77.9196 30.6364V34.4533H74.1026V36.998H77.9196V66.2614H79.1919V70.0783C79.1919 71.4817 78.0506 72.623 76.6473 72.623H70.2856V75.1676H76.6473H91.9151C94.7219 75.1676 97.0044 72.8851 97.0044 70.0783V66.2614H98.2767V36.998H102.094V34.4533H98.2767Z" fill="#DB1127"/>
<path d="M77.5465 16.2681L75.7474 14.4691L79.9372 10.2793H75.3746C74.8606 10.2793 74.3962 9.96886 74.199 9.49429C74.0018 9.01844 74.1112 8.47134 74.4751 8.10746L80.8367 1.74585L82.6358 3.54491L78.446 7.73467H83.0085C83.5226 7.73467 83.987 8.04511 84.1842 8.51969C84.3814 8.99554 84.272 9.54264 83.9081 9.90652L77.5465 16.2681Z" fill="#FFC369"/>
<path d="M90.2701 21.3575L88.471 19.5584L92.6608 15.3687H88.0982C87.5842 15.3687 87.1198 15.0582 86.9226 14.5836C86.7254 14.1078 86.8348 13.5607 87.1987 13.1968L93.5603 6.83521L95.3594 8.63427L91.1696 12.824H95.7322C96.2462 12.824 96.7106 13.1345 96.9078 13.609C97.105 14.0849 96.9956 14.632 96.6317 14.9959L90.2701 21.3575Z" fill="#FFC369"/>
<path d="M102.993 16.2681L101.194 14.4691L105.384 10.2793H100.821C100.307 10.2793 99.843 9.96886 99.6458 9.49429C99.4486 9.01844 99.558 8.47134 99.9219 8.10746L106.283 1.74585L108.083 3.54491L103.893 7.73467H108.455C108.969 7.73467 109.434 8.04511 109.631 8.51969C109.828 8.99554 109.719 9.54264 109.355 9.90652L102.993 16.2681Z" fill="#FFC369"/>
<defs>
<clipPath id="clip0">
<rect y="53.7258" width="24.5893" height="24.5893" fill="white"/>
</clipPath>
</defs>
</svg>
