<svg width="79" height="72" viewBox="0 0 79 72" fill="none" xmlns="http://www.w3.org/2000/svg">
<g clip-path="url(#clip0)">
<path d="M13.7195 47.4297C7.38011 47.4297 2.00163 51.7287 0 57.7193C2.00163 63.71 7.38011 68.009 13.7195 68.009C20.0589 68.009 25.4374 63.71 27.439 57.7193C25.4374 51.7287 20.0589 47.4297 13.7195 47.4297ZM13.7195 64.5791C9.93094 64.5791 6.85976 61.5079 6.85976 57.7193C6.85976 53.9308 9.93094 50.8596 13.7195 50.8596C17.5081 50.8596 20.5793 53.9308 20.5793 57.7193C20.5793 61.5078 17.5081 64.5791 13.7195 64.5791Z" fill="#DB1127"/>
<path d="M16.1447 55.2939C17.4841 56.6333 17.4841 58.805 16.1447 60.1445C14.8053 61.4839 12.6336 61.4839 11.2941 60.1445C9.95469 58.805 9.95469 56.6333 11.2941 55.2939C12.6336 53.9544 14.8053 53.9544 16.1447 55.2939Z" fill="#DB1127"/>
</g>
<path d="M38.4878 4.97574V58.9391V60.7685H73.2439V6.34777C73.2439 3.05508 70.5 1.92698 69.128 1.77452C61.3536 1.62208 45.2561 1.40866 43.061 1.77452C40.8658 2.14037 39.0975 4.0611 38.4878 4.97574Z" fill="#DB1127"/>
<path d="M67.2987 7.26221H44.4328C44.1296 7.26221 43.8388 7.38266 43.6244 7.59707C43.41 7.81148 43.2896 8.10228 43.2896 8.4055V22.125C43.2896 22.4282 43.41 22.719 43.6244 22.9334C43.8388 23.1479 44.1296 23.2683 44.4328 23.2683H67.2987C67.6019 23.2683 67.8927 23.1479 68.1071 22.9334C68.3215 22.719 68.442 22.4282 68.442 22.125V8.4055C68.442 8.10228 68.3215 7.81148 68.1071 7.59707C67.8927 7.38266 67.6019 7.26221 67.2987 7.26221ZM66.1554 20.9817H45.5761V9.54879H66.1554V20.9817Z" fill="white"/>
<path d="M63.8691 16.4087H61.5825V18.6953H63.8691V16.4087Z" fill="white"/>
<path d="M59.2959 16.4087H57.0093V18.6953H59.2959V16.4087Z" fill="white"/>
<path d="M54.7226 16.4087H52.436V18.6953H54.7226V16.4087Z" fill="white"/>
<path d="M63.8687 39.2741H59.6256L64.8762 29.5261C64.9988 29.2986 65.0407 29.0363 64.9952 28.782C64.9496 28.5276 64.8192 28.2962 64.6252 28.1255C64.4313 27.9547 64.1852 27.8547 63.9271 27.8418C63.6691 27.8288 63.4142 27.9037 63.2041 28.0541L47.198 39.487C47.0009 39.6278 46.8536 39.8276 46.7774 40.0575C46.7011 40.2874 46.6999 40.5356 46.7738 40.7663C46.8477 40.997 46.993 41.1982 47.1887 41.341C47.3844 41.4838 47.6203 41.5607 47.8626 41.5607H52.1056L46.8622 51.3087C46.7396 51.5361 46.6976 51.7984 46.7432 52.0528C46.7888 52.3071 46.9192 52.5385 47.1131 52.7093C47.3071 52.88 47.5532 52.98 47.8112 52.993C48.0693 53.006 48.3242 52.9311 48.5343 52.7807L64.5404 41.3477C64.738 41.2066 64.8855 41.0062 64.9616 40.7756C65.0377 40.5449 65.0384 40.2961 64.9635 40.0651C64.8887 39.834 64.7423 39.6328 64.5454 39.4906C64.3485 39.3484 64.1115 39.2726 63.8687 39.2741ZM51.2024 48.0603L55.0267 40.959C55.1202 40.7853 55.1671 40.5904 55.1629 40.3932C55.1588 40.196 55.1037 40.0033 55.003 39.8337C54.9023 39.6641 54.7594 39.5234 54.5883 39.4254C54.4172 39.3273 54.2236 39.2752 54.0263 39.2741H51.4354L60.5345 32.7745L56.7102 39.8757C56.6168 40.0494 56.5699 40.2444 56.574 40.4415C56.5782 40.6387 56.6333 40.8315 56.734 41.0011C56.8347 41.1707 56.9775 41.3113 57.1487 41.4094C57.3198 41.5074 57.5134 41.5596 57.7106 41.5607H60.2959L51.2024 48.0603Z" fill="#FFC369"/>
<path d="M74.1585 22.485V6.11881C74.1566 4.60329 73.5538 3.15038 72.4821 2.07875C71.4105 1.00711 69.9576 0.404235 68.4421 0.402344L43.2896 0.402344C41.7741 0.404235 40.3212 1.00711 39.2496 2.07875C38.1779 3.15038 37.5751 4.60329 37.5732 6.11881V59.8536H34.1433C33.8401 59.8536 33.5493 59.974 33.3349 60.1884C33.1205 60.4028 33 60.6936 33 60.9969V67.8566C33 68.1598 33.1205 68.4506 33.3349 68.665C33.5493 68.8794 33.8401 68.9999 34.1433 68.9999H77.5884C77.8916 68.9999 78.1824 68.8794 78.3968 68.665C78.6113 68.4506 78.7317 68.1598 78.7317 67.8566V60.9969C78.7317 60.6936 78.6113 60.4028 78.3968 60.1884C78.1824 59.974 77.8916 59.8536 77.5884 59.8536H74.1585V24.9374V22.485ZM39.8598 6.11881C39.8598 5.20915 40.2211 4.33674 40.8643 3.69352C41.5076 3.05029 42.38 2.68893 43.2896 2.68893H68.4421C69.3517 2.68893 70.2241 3.05029 70.8674 3.69352C71.5106 4.33674 71.872 5.20915 71.872 6.11881V59.8536H39.8598V6.11881ZM76.4451 62.1401V66.7133H35.2866V62.1401H76.4451Z" fill="#DB1127"/>
<path d="M34.8292 61.2256L33.9146 67.1707L77.817 67.628L77.3597 61.2256H34.8292Z" fill="#DB1127"/>
<defs>
<clipPath id="clip0">
<rect y="44" width="27.439" height="27.439" fill="white"/>
</clipPath>
</defs>
</svg>
