<svg width="114" height="84" viewBox="0 0 114 84" fill="none" xmlns="http://www.w3.org/2000/svg">
<path d="M2.70219 77.4131V56.627H7.27513V77.4131H2.70219Z" fill="#DB1127"/>
<path d="M36.8383 45.9715C36.4307 45.9205 36.0169 45.8857 35.5957 45.8857C35.1744 45.8857 34.7606 45.9205 34.353 45.9715V57.0696H36.8383V45.9715Z" fill="#DB1127"/>
<path d="M23.1689 35.9445H48.0219V21.0327H23.1689V35.9445ZM41.8086 28.4886H44.2939V33.4592H41.8086V28.4886ZM36.8381 28.4886H39.3234V33.4592H36.8381V28.4886Z" fill="#DB1127"/>
<path d="M39.3234 46.6177V58.3122C39.3234 58.9994 38.7667 59.5549 38.0808 59.5549H33.1102C32.4242 59.5549 31.8675 58.9994 31.8675 58.3122V46.6177C28.2291 48.0964 25.6543 51.6641 25.6543 55.8269C25.6543 61.3082 30.1142 65.7681 35.5955 65.7681C41.0768 65.7681 45.5366 61.3082 45.5366 55.8269C45.5366 51.6641 42.9619 48.0964 39.3234 46.6177Z" fill="#DB1127"/>
<path d="M51.7497 16.0625H19.4409C18.7562 16.0625 18.1982 16.6204 18.1982 17.3051V76.9522C18.1982 77.6381 18.7562 78.1948 19.4409 78.1948H51.7497C52.4344 78.1948 52.9924 77.6381 52.9924 76.9522V17.3051C52.9924 16.6204 52.4344 16.0625 51.7497 16.0625ZM23.1688 75.7095H20.6835V73.2242H23.1688V75.7095ZM45.9006 67.8896L43.4538 65.4428C41.3115 67.1974 38.5752 68.2537 35.5953 68.2537C32.6154 68.2537 29.8791 67.1974 27.7368 65.4428L25.29 67.8896L23.5329 66.1325L25.9797 63.6857C24.2251 61.5434 23.1688 58.8071 23.1688 55.8272C23.1688 52.8473 24.2251 50.111 25.9797 47.9687L23.5329 45.5219L25.29 43.7648L27.7368 46.2116C29.8791 44.457 32.6154 43.4007 35.5953 43.4007C38.5752 43.4007 41.3115 44.457 43.4538 46.2116L45.9006 43.7648L47.6577 45.5219L45.2109 47.9687C46.9655 50.111 48.0218 52.8473 48.0218 55.8272C48.0218 58.8071 46.9655 61.5434 45.2109 63.6857L47.6577 66.1325L45.9006 67.8896ZM50.5071 75.7095H48.0218V73.2242H50.5071V75.7095ZM50.5071 37.1875C50.5071 37.8734 49.9504 38.4301 49.2644 38.4301H21.9262C21.2402 38.4301 20.6835 37.8734 20.6835 37.1875V19.7904C20.6835 19.1045 21.2402 18.5478 21.9262 18.5478H49.2644C49.9504 18.5478 50.5071 19.1045 50.5071 19.7904V37.1875Z" fill="#DB1127"/>
<path d="M81.5736 35.9446V32.2166C81.5736 31.2995 81.0703 30.5067 80.3309 30.0755V24.7607H77.8456V30.0755C77.1063 30.5055 76.603 31.2983 76.603 32.2166V35.9446H72.8751V38.4299H76.603V67.0107H77.8456V70.7387C77.8456 72.1093 76.731 73.224 75.3603 73.224H64.7283C65.1557 72.4896 65.4192 71.6483 65.4192 70.7387V67.0107H66.6618V38.4299H70.3898V35.9446H66.6618V32.2166C66.6618 31.2995 66.1585 30.5067 65.4192 30.0755V24.7607H62.9339V30.0755C62.1945 30.5055 61.6912 31.2983 61.6912 32.2166V35.9446H57.9633V38.4299H61.6912V67.0107H62.9339V70.7387C62.9339 72.1093 61.8192 73.224 60.4486 73.224H54.2354V75.7093H60.4486H75.3603C78.1016 75.7093 80.3309 73.4799 80.3309 70.7387V67.0107H81.5736V38.4299H85.3015V35.9446H81.5736Z" fill="#DB1127"/>
<path d="M61.327 18.1836L59.5699 16.4265L63.6619 12.3344H59.2058C58.7037 12.3344 58.2502 12.0312 58.0576 11.5677C57.865 11.103 57.9718 10.5686 58.3272 10.2132L64.5405 4L66.2976 5.7571L62.2055 9.84914H66.6617C67.1637 9.84914 67.6172 10.1523 67.8099 10.6159C68.0025 11.0806 67.8956 11.6149 67.5402 11.9703L61.327 18.1836Z" fill="#FFC369"/>
<path d="M73.7537 23.1543L71.9966 21.3972L76.0887 17.3051H71.6325C71.1305 17.3051 70.6769 17.0019 70.4843 16.5384C70.2917 16.0737 70.3986 15.5393 70.754 15.1839L76.9672 8.9707L78.7243 10.7278L74.6323 14.8198H79.0884C79.5904 14.8198 80.044 15.123 80.2366 15.5866C80.4292 16.0513 80.3224 16.5856 79.967 16.941L73.7537 23.1543Z" fill="#FFC369"/>
<path d="M86.18 18.1836L84.4229 16.4265L88.5149 12.3344H84.0588C83.5568 12.3344 83.1032 12.0312 82.9106 11.5677C82.718 11.103 82.8249 10.5686 83.1802 10.2132L89.3935 4L91.1506 5.7571L87.0586 9.84914H91.5147C92.0167 9.84914 92.4703 10.1523 92.6629 10.6159C92.8555 11.0806 92.7486 11.6149 92.3932 11.9703L86.18 18.1836Z" fill="#FFC369"/>
<rect x="3" y="49" width="4" height="5" fill="#DB1127"/>
</svg>
