<svg width="70" height="70" viewBox="0 0 70 70" fill="none" xmlns="http://www.w3.org/2000/svg">
<g clip-path="url(#clip0)">
<path d="M0.0120792 69.0095C0.188714 69.0259 0.289355 69.0424 0.389995 69.0424C6.65231 69.0424 12.9187 69.0424 19.179 69.0547C19.676 69.0547 19.8424 68.8041 20.0396 68.4591C21.8676 65.2509 23.6996 62.0448 25.5358 58.8407C26.2403 57.6083 25.7227 56.7231 24.3035 56.719C22.1469 56.719 19.9903 56.7087 17.8337 56.719C17.2175 56.719 16.7082 56.5978 16.4268 55.9981C16.129 55.3634 16.4042 54.8808 16.8376 54.4063C21.0563 49.6742 25.2709 44.9379 29.4813 40.1975C30.1591 39.4355 30.8123 39.2671 31.5085 39.6512C32.2377 40.0619 32.4369 40.7192 32.1042 41.7235C31.488 43.5967 30.8533 45.4657 30.2351 47.3389C29.812 48.6267 30.3132 49.3147 31.6728 49.3168C34.2895 49.3168 36.9082 49.2983 39.5269 49.3414C39.9751 49.3604 40.4021 49.5372 40.7326 49.8405C41.1865 50.2903 40.9975 50.8675 40.7326 51.4076C37.9502 57.0189 35.1802 62.6315 32.4225 68.2455C32.3054 68.4817 32.2048 68.7261 32.0836 68.9931H68.9387V34.5041H49.3384V19.7489C50.1414 19.7489 50.8829 19.7489 51.6264 19.7489C52.7335 19.7489 53.5509 19.254 54.0069 18.2373C54.4382 17.2719 54.2123 16.2245 53.364 15.4317C48.3689 10.7775 43.3841 6.11315 38.3439 1.50627C36.1051 -0.547625 32.7984 -0.483954 30.5617 1.57199C25.5926 6.13711 20.6434 10.7276 15.7141 15.3433C14.8001 16.1937 14.5536 17.1918 14.9521 18.1921C15.3506 19.1923 16.2255 19.7387 17.4578 19.7469C18.1911 19.7469 18.9243 19.7469 19.6329 19.7469V34.5678H0.0120792V69.0095ZM61.4769 0.0254113C61.0637 0.0431258 60.6622 0.167435 60.3113 0.386255C59.9604 0.605075 59.672 0.910961 59.4743 1.27418C59.2319 1.67272 59.1123 2.1339 59.1306 2.60004C59.1488 3.06619 59.3041 3.5166 59.577 3.89495C60.7252 5.62638 61.8548 7.37013 63.044 9.07281C63.4548 9.65611 63.5123 10.0648 63.0707 10.681C61.8918 12.3241 60.8114 14.0453 59.6777 15.7233C58.9814 16.7503 58.9609 17.7772 59.653 18.8042C61.2366 21.1702 62.7955 23.5528 64.4078 25.8983C64.7154 26.3348 65.1269 26.6878 65.6052 26.9252C66.0752 27.1416 66.6036 27.1965 67.1081 27.0814C67.6126 26.9662 68.0648 26.6875 68.3944 26.2885C68.7539 25.8793 68.9652 25.3609 68.9943 24.817C69.0234 24.273 68.8685 23.7351 68.5546 23.2899C67.4085 21.5276 66.2522 19.7695 65.0507 18.0442C64.6748 17.504 64.6399 17.122 65.0301 16.5634C66.2214 14.8607 67.349 13.1149 68.4991 11.3855C69.1297 10.4366 69.1872 9.46099 68.5546 8.51004C66.9279 6.04537 65.2916 3.59097 63.6458 1.14684C63.1549 0.395112 62.4381 0.0541658 61.4769 0.0254113ZM9.9673 2.54554C9.82558 1.38303 9.14574 0.469052 8.07155 0.142483C7.56394 -0.0170177 7.01762 -0.00262293 6.51911 0.183388C6.02061 0.369399 5.59839 0.716395 5.31934 1.16943C3.72346 3.52114 2.17072 5.90776 0.570738 8.26358C-0.189202 9.38089 -0.176879 10.4304 0.583061 11.5498C1.75789 13.2545 2.87521 15.0086 4.05414 16.7174C4.35606 17.1549 4.33347 17.4445 4.04182 17.8676C2.83618 19.6216 1.66136 21.3982 0.49269 23.1789C-0.343244 24.4482 -0.0926695 25.9229 1.06367 26.7116C2.22001 27.5003 3.73373 27.1779 4.60253 25.8901C6.16349 23.5712 7.69775 21.2319 9.26692 18.9192C10.0248 17.8019 10.0125 16.7503 9.25049 15.6329C8.07361 13.92 6.95834 12.166 5.77736 10.4551C5.47543 10.0176 5.50008 9.73005 5.79173 9.3049C6.98573 7.57278 8.15303 5.82287 9.29362 4.05515C9.58938 3.59918 9.74548 3.0508 9.9673 2.54554Z" fill="white"/>
<path d="M0.0131836 69.0111V34.5714H19.6381V19.7505C18.9295 19.7505 18.2004 19.7505 17.4631 19.7505C16.2307 19.7505 15.3455 19.1857 14.9532 18.1957C14.5609 17.2058 14.8012 16.1973 15.7152 15.347C20.6569 10.749 25.6061 6.15718 30.5628 1.57152C32.7974 -0.482368 36.1083 -0.539877 38.345 1.5058C43.3852 6.11268 48.37 10.7771 53.3651 15.4312C54.2175 16.224 54.4393 17.2797 54.008 18.2368C53.552 19.2535 52.7346 19.7423 51.6275 19.7485C50.884 19.7485 50.1426 19.7485 49.3395 19.7485V34.5057H68.9398V68.9947H32.0847C32.2059 68.7277 32.3065 68.4833 32.4236 68.2471C35.184 62.6331 37.9486 57.0225 40.7172 51.4154C40.9842 50.8732 41.1732 50.2981 40.7172 49.8483C40.3868 49.5449 39.9598 49.3682 39.5116 49.3492C36.8929 49.306 34.2742 49.3307 31.6575 49.3245C30.2937 49.3245 29.7926 48.6344 30.2198 47.3466C30.836 45.4735 31.4727 43.6044 32.0888 41.7313C32.4216 40.7269 32.2223 40.0635 31.4932 39.6589C30.7969 39.2748 30.1438 39.4433 29.466 40.2052C25.2514 44.9415 21.0368 49.6778 16.8222 54.4141C16.3991 54.8885 16.1239 55.3712 16.4115 56.0059C16.6929 56.6056 17.2104 56.7288 17.8184 56.7268C19.975 56.7124 22.1316 56.7165 24.2881 56.7268C25.7156 56.7268 26.2332 57.6202 25.5205 58.8484C23.7062 62.0525 21.8796 65.2573 20.0407 68.4627C19.8353 68.8078 19.6772 69.0604 19.1801 69.0583C12.9178 69.0378 6.65137 69.046 0.3911 69.046C0.290459 69.046 0.189818 69.0296 0.0131836 69.0111ZM36.9442 34.5057C36.3281 32.4272 35.7756 30.4308 35.1615 28.4529C34.993 27.9127 35.0793 27.5738 35.488 27.1856C36.515 26.2141 37.4824 25.1872 38.4723 24.1828C39.8115 22.8273 39.795 21.5128 38.4087 20.1962C37.164 19.0152 35.907 17.8445 34.6357 16.6512C35.3484 15.1868 36.0364 13.7614 36.7368 12.338C37.049 11.7054 37.0531 11.1057 36.6197 10.5306C35.9276 9.61662 34.6829 9.67413 33.9497 10.6908C32.7071 12.4181 31.485 14.168 30.2752 15.9118C29.4537 17.101 29.5009 17.861 30.4909 18.9208L33.4793 22.1125C32.4524 23.16 31.4809 24.1828 30.4724 25.1646C30.1653 25.4357 29.9234 25.7727 29.7648 26.1504C29.6061 26.5281 29.5349 26.9367 29.5564 27.3458C29.6057 28.4467 29.5667 29.5517 29.5667 30.6567V34.5057H36.9442Z" fill="#DB1127"/>
<path d="M61.4771 0.0266113C62.4362 0.0553658 63.1551 0.396312 63.648 1.13161C65.2911 3.58258 66.9274 6.03699 68.5568 8.49481C69.1894 9.45603 69.1319 10.4316 68.5014 11.3703C67.3512 13.0996 66.2236 14.8454 65.0323 16.5481C64.64 17.1068 64.677 17.4888 65.0529 18.029C66.2544 19.7543 67.4107 21.5206 68.5568 23.2746C68.8746 23.7215 69.0315 24.2629 69.002 24.8105C68.9726 25.3581 68.7584 25.8795 68.3946 26.2897C68.0667 26.6916 67.615 26.9734 67.11 27.0912C66.6049 27.209 66.0751 27.1561 65.6033 26.9408C65.125 26.7034 64.7135 26.3504 64.4059 25.9139C62.7936 23.5683 61.2347 21.1899 59.6511 18.8197C58.959 17.7928 58.9795 16.7658 59.6758 15.7389C60.8116 14.0465 61.8919 12.3233 63.0709 10.6802C63.5125 10.064 63.4529 9.65321 63.0442 9.07195C61.855 7.37133 60.7253 5.62758 59.5772 3.90231C59.3043 3.52396 59.149 3.07355 59.1307 2.60741C59.1125 2.14126 59.232 1.68008 59.4745 1.28154C59.6714 0.917172 59.9594 0.61005 60.3104 0.390117C60.6613 0.170183 61.0633 0.0449446 61.4771 0.0266113Z" fill="#FFC369"/>
<path d="M9.96734 2.54818C9.74552 3.05344 9.58943 3.60183 9.29367 4.05985C8.15444 5.82756 6.99057 7.57748 5.80205 9.3096C5.5104 9.73475 5.48575 10.0223 5.78767 10.4598C6.95839 12.1707 8.07365 13.9247 9.24232 15.6376C10.0043 16.7467 10.0166 17.7983 9.25875 18.9239C7.69779 21.2283 6.16148 23.5677 4.60258 25.8804C3.73378 27.1744 2.2406 27.5112 1.06372 26.702C-0.113163 25.8927 -0.343199 24.4427 0.492736 23.1693C1.6614 21.4009 2.83623 19.6242 4.04186 17.8702C4.33352 17.4471 4.35611 17.1575 4.05419 16.72C2.87525 15.0112 1.75793 13.2572 0.583107 11.5442C-0.176834 10.4331 -0.189157 9.38354 0.570783 8.258C2.17077 5.9104 3.72351 3.52378 5.31938 1.16591C5.59934 0.713984 6.02194 0.368258 6.52038 0.183389C7.01882 -0.00147874 7.56465 -0.0149422 8.0716 0.145127C9.13757 0.471696 9.82562 1.38568 9.96734 2.54818Z" fill="#FFC369"/>
<path d="M36.9435 34.5056H29.5619V30.6566C29.5619 29.5516 29.6009 28.4466 29.5516 27.3457C29.5301 26.9366 29.6014 26.528 29.76 26.1503C29.9186 25.7725 30.1605 25.4356 30.4676 25.1645C31.4761 24.1827 32.4455 23.1599 33.4745 22.1124L30.4923 18.9247C29.5023 17.8649 29.4448 17.105 30.2766 15.9158C31.4966 14.172 32.7084 12.4242 33.951 10.6948C34.6822 9.66785 35.9269 9.62061 36.6211 10.5346C37.0545 11.1056 37.0503 11.7094 36.7382 12.342C36.0378 13.7633 35.3497 15.1887 34.637 16.6552C35.9084 17.8485 37.1654 19.0192 38.41 20.2002C39.7964 21.5147 39.8128 22.8312 38.4737 24.1868C37.4837 25.1912 36.5122 26.2181 35.4894 27.1896C35.0786 27.5778 34.9944 27.9167 35.1628 28.4569C35.7749 30.4327 36.3356 32.4291 36.9435 34.5056Z" fill="white"/>
</g>
<defs>
<clipPath id="clip0">
<rect width="69.0046" height="69.058" fill="white"/>
</clipPath>
</defs>
</svg>
